<svg width="44px" height="44px" viewBox="0 0 44 44" version="1.1" xmlns="http://www.w3.org/2000/svg" xmlns:xlink="http://www.w3.org/1999/xlink">
    <!-- Generator: Sketch 41.2 (35397) - http://www.bohemiancoding.com/sketch -->
    <desc>Created with Sketch.</desc>
    <defs></defs>
    <g id="left-flash" stroke="none" stroke-width="1" fill="none" fill-rule="evenodd">
        <path d="M16.1093247,23.2014205 C16.0303234,22.8132697 15.9888397,22.4116507 15.9888397,22.0005314 C15.9888397,18.6859167 18.6853853,15.9888397 22,15.9888397 C22.41126,15.9888397 22.8130184,16.0303651 23.2013002,16.109445 L16.1093247,23.2014205 Z M20.9035213,27.9119995 C21.2591329,27.9778165 21.6256241,28.0122232 22,28.0122232 C25.3140833,28.0122232 28.0111603,25.3156776 28.0111603,22.0005314 C28.0111603,21.6263002 27.9767912,21.2599519 27.9110452,20.9044755 L20.9035213,27.9119995 Z M22,14.2217892 C21.3521701,14.2217892 20.8271036,13.6967228 20.8271036,13.0494243 L20.8271036,11.1728964 C20.8271036,10.5250664 21.3521701,10 22,10 C22.6478299,10 23.1728964,10.5250664 23.1728964,11.1728964 L23.1728964,13.0494243 C23.1728964,13.6967228 22.6472985,14.2217892 22,14.2217892 Z M22,29.7776794 C21.3521701,29.7776794 20.8271036,30.3027458 20.8271036,30.9505757 L20.8271036,32.8265722 C20.8271036,33.4749336 21.3521701,34 22,34 C22.6478299,34 23.1728964,33.4749336 23.1728964,32.8265722 L23.1728964,30.9505757 C23.1728964,30.3027458 22.6472985,29.7776794 22,29.7776794 Z M29.7776794,22 C29.7776794,21.3521701 30.3027458,20.8271036 30.9505757,20.8271036 L32.8271036,20.8271036 C33.4749336,20.8271036 34,21.3521701 34,22 C34,22.6478299 33.4749336,23.1723649 32.8271036,23.1723649 L30.9505757,23.1723649 C30.3027458,23.1723649 29.7776794,22.6478299 29.7776794,22 Z M14.2217892,22 C14.2217892,21.3521701 13.6967228,20.8271036 13.0488928,20.8271036 L11.1728964,20.8271036 C10.5250664,20.8271036 10,21.3521701 10,22 C10,22.6478299 10.5250664,23.1723649 11.1728964,23.1723649 L13.0494243,23.1723649 C13.6967228,23.1723649 14.2217892,22.6478299 14.2217892,22 Z M27.49938,27.5004429 C27.9574845,27.0428698 28.7004429,27.0428698 29.1580159,27.5004429 L30.485031,28.8274579 C30.9431355,29.2844996 30.9431355,30.0279894 30.485031,30.4855624 C30.0269265,30.9431355 29.2844996,30.9431355 28.826395,30.4855624 L27.49938,29.1585474 C27.0412755,28.7004429 27.0412755,27.9580159 27.49938,27.5004429 Z M16.5000886,16.5000886 C16.9581931,16.0419841 16.9581931,15.2995571 16.5000886,14.8414526 L15.1730735,13.514969 C14.714969,13.0568645 13.9725421,13.0568645 13.5144376,13.514969 C13.056333,13.9725421 13.056333,14.7155004 13.5144376,15.1730735 L14.8414526,16.5000886 C15.2995571,16.9587245 16.0419841,16.9587245 16.5000886,16.5000886 Z M30.6062351,11.9230732 L32.2783179,13.5951561 L14.3545325,31.5189415 L12.6824496,29.8468586 L30.6062351,11.9230732 Z" id="Combined-Shape" fill="#FFFFFF"></path>
    </g>
</svg>