
<svg width="22px" height="22px" viewBox="319 44 22 22" version="1.1" xmlns="http://www.w3.org/2000/svg" xmlns:xlink="http://www.w3.org/1999/xlink">
    <!-- Generator: Sketch 41.2 (35397) - http://www.bohemiancoding.com/sketch -->
    <desc>Created with Sketch.</desc>
    <defs></defs>
    <g id="painter-palette" stroke="none" stroke-width="1" fill="none" fill-rule="evenodd" transform="translate(319.000000, 44.000000)">
        <g id="Capa_1" fill="#000000">
            <g id="palette">
                <path d="M11,0 C4.88888889,0 0,4.88888889 0,11 C0,17.1111111 4.88888889,22 11,22 C11.9777778,22 12.8333333,21.1444444 12.8333333,20.1666667 C12.8333333,19.6777778 12.7111111,19.3111111 12.3444444,18.9444444 C12.1,18.5777778 11.8555556,18.2111111 11.8555556,17.7222222 C11.8555556,16.7444444 12.711159,15.8888889 13.6888889,15.8888889 L15.8888889,15.8888889 C19.3111111,15.8888889 22,13.2 22,9.77777778 C22,4.4 17.1111111,0 11,0 Z M4.27777778,11 C3.3,11 2.44444444,10.1444444 2.44444444,9.16666667 C2.44444444,8.18888889 3.3,7.33333333 4.27777778,7.33333333 C5.25555556,7.33333333 6.11111111,8.18888889 6.11111111,9.16666667 C6.11111111,10.1444444 5.25555556,11 4.27777778,11 Z M7.94444444,6.11111111 C6.96666667,6.11111111 6.11111111,5.25555556 6.11111111,4.27777778 C6.11111111,3.3 6.96666667,2.44444444 7.94444444,2.44444444 C8.92222222,2.44444444 9.77777778,3.3 9.77777778,4.27777778 C9.77777778,5.25555556 8.92222222,6.11111111 7.94444444,6.11111111 Z M14.0555556,6.11111111 C13.0777778,6.11111111 12.2222222,5.25555556 12.2222222,4.27777778 C12.2222222,3.3 13.0777778,2.44444444 14.0555556,2.44444444 C15.0333333,2.44444444 15.8888889,3.3 15.8888889,4.27777778 C15.8888889,5.25555556 15.0333333,6.11111111 14.0555556,6.11111111 Z M17.7222222,11 C16.7444444,11 15.8888889,10.1444444 15.8888889,9.16666667 C15.8888889,8.18888889 16.7444444,7.33333333 17.7222222,7.33333333 C18.7,7.33333333 19.5555556,8.18888889 19.5555556,9.16666667 C19.5555556,10.1444444 18.7,11 17.7222222,11 Z" id="Shape"></path>
            </g>
        </g>
    </g>
</svg>