
<svg fill="black" width="20px" height="20px" viewBox="322 45 20 20" version="1.1" xmlns="http://www.w3.org/2000/svg" xmlns:xlink="http://www.w3.org/1999/xlink">
    <!-- Generator: Sketch 41.2 (35397) - http://www.bohemiancoding.com/sketch -->
    <desc>Created with Sketch.</desc>
    <defs></defs>
    <g id="pipette-tool" stroke="none" stroke-width="1" fill="none" fill-rule="evenodd" transform="translate(322.000000, 45.000000)">
        <g id="Capa_1" fill="#FFFFFF">
            <path d="M18.9560597,1.00232836 C18.3097313,0.356 17.450209,0 16.5361791,0 C15.6220299,0 14.7626866,0.356 14.1163582,1.00232836 L9.47904478,5.63970149 C9.28053731,5.57659701 9.07426866,5.54471642 8.86477612,5.54471642 C8.3240597,5.54471642 7.81570149,5.75522388 7.43319403,6.13761194 C6.83802985,6.73283582 6.67504478,7.62877612 7.01498507,8.3921791 L1.34023881,14.0669851 C1.19928358,14.208 1.12340299,14.4013731 1.13092537,14.600597 L1.21414925,16.8047761 L0.10961194,18.6012537 C-0.064119403,18.8836418 -0.0211940299,19.2485373 0.213253731,19.4831045 L0.480537313,19.7503881 C0.618746269,19.8885373 0.802208955,19.9602388 0.987343284,19.9602388 C1.11689552,19.9602388 1.24728358,19.925194 1.36370149,19.8533134 L3.16298507,18.7414925 L5.35659701,18.8275224 C5.5561791,18.835403 5.74997015,18.759403 5.89122388,18.6182687 L11.5662687,12.9431642 C11.8238806,13.0575522 12.1068657,13.1177313 12.3898507,13.1177313 C12.9305075,13.1177313 13.4386269,12.9072239 13.8208955,12.5248358 C14.3545075,11.9912239 14.5458507,11.1958209 14.3187463,10.4792836 L18.9560597,5.84185075 C20.2902687,4.50764179 20.2902687,2.33659701 18.9560597,1.00232836 Z M6.84322388,14.8515821 L4.19838806,14.0234627 L8.32698507,9.89498507 L10.063403,11.631403 L6.84322388,14.8515821 Z" id="Shape"></path>
        </g>
    </g>
</svg>