<?xml version="1.0" encoding="UTF-8" standalone="no"?>
<svg width="13px" height="17px" viewBox="0 0 13 17" version="1.1" xmlns="http://www.w3.org/2000/svg" xmlns:xlink="http://www.w3.org/1999/xlink">
    <!-- Generator: Sketch 3.8.1 (29687) - http://www.bohemiancoding.com/sketch -->
    <title>Group</title>
    <desc>Created with Sketch.</desc>
    <defs></defs>
    <g id="Page-1" stroke="none" stroke-width="1" fill="none" fill-rule="evenodd">
        <g id="Group" fill="#EE3696">
            <path d="M4.75296443,11.6754717 L4.75296443,1.79622642 C4.75296443,0.769811321 3.91798419,0 2.95454545,0 C1.92687747,0 1.15612648,0.833962264 1.15612648,1.79622642 L1.15612648,11.6754717 C0.449604743,12.2528302 0,13.0867925 0,14.0490566 C0,15.7169811 1.34881423,17 2.95454545,17 C4.56027668,17 5.90909091,15.6528302 5.90909091,14.0490566 C5.90909091,13.0226415 5.45948617,12.1886792 4.75296443,11.6754717 L4.75296443,11.6754717 Z" id="Shape"></path>
            <path d="M12.8159174,4.3837589 L12.8159174,4.3837589 L12.7545565,4.25569938 C12.7545565,4.25569938 12.7545565,4.19166962 12.6931957,4.19166962 L11.4659784,1.69450892 C11.1591741,1.05421131 10.300122,1.05421131 9.93195683,1.69450892 L8.58201783,4.12763986 C8.58201783,4.19166962 8.52065697,4.19166962 8.52065697,4.25569938 L8.4592961,4.3837589 L8.4592961,4.3837589 C8.27521351,4.89599699 8.21385265,5.40823508 8.33657438,6.0485327 C8.58201783,6.94494936 9.25698733,7.64927673 10.1160394,7.84136602 C11.650061,8.16151482 13,6.94494936 13,5.40823508 C13,5.02405652 12.9386391,4.70390771 12.8159174,4.3837589 L12.8159174,4.3837589 Z" id="Shape"></path>
        </g>
    </g>
</svg>