<?xml version="1.0" encoding="UTF-8" standalone="no"?>
<svg width="24px" height="23px" viewBox="0 0 24 23" version="1.1" xmlns="http://www.w3.org/2000/svg" xmlns:xlink="http://www.w3.org/1999/xlink">
    <!-- Generator: Sketch 3.8.1 (29687) - http://www.bohemiancoding.com/sketch -->
    <title>Shape</title>
    <desc>Created with Sketch.</desc>
    <defs></defs>
    <g id="Page-1" stroke="none" stroke-width="1" fill="none" fill-rule="evenodd">
        <g id="tails-screen-copy-4" transform="translate(-46.000000, -316.000000)" fill="#FFFFFF">
            <path d="M67.4,319.213844 L61.7,316.213844 C61.6,316.213844 61.6,316.213844 61.5,316.113844 C61.4,316.113844 61.3,316.013844 61.3,316.013844 L61,316.013844 L60.8,316.013844 L60.5,316.013844 L60.3,316.013844 C60.2,316.013844 60.1,316.113844 60.1,316.113844 C60,316.113844 60,316.113844 59.9,316.213844 L55,318.813844 C54.7,319.013844 54.2,319.013844 53.9,318.813844 L49,316.213844 C48.4,315.913844 47.6,315.913844 47,316.313844 C46.4,316.713844 46,317.313844 46,318.013844 L46,332.613844 C46,333.713844 46.6,334.813844 47.6,335.413844 L53.4,338.713844 C53.5,338.813844 53.6,338.813844 53.7,338.813844 C53.8,338.813844 53.8,338.913844 53.9,338.913844 C54.1,338.913844 54.2,339.013844 54.4,339.013844 C54.6,339.013844 54.7,339.013844 54.9,338.913844 C55,338.913844 55,338.913844 55.1,338.813844 C55.2,338.813844 55.3,338.713844 55.4,338.713844 L60.2,336.013844 C60.6,335.813844 61,335.813844 61.4,336.013844 L66.2,338.713844 C66.5,338.913844 66.8,339.013844 67.2,339.013844 C67.5,339.013844 67.9,338.913844 68.2,338.713844 C68.8,338.313844 69.2,337.713844 69.2,337.013844 L69.2,322.213844 C69.1,320.813844 68.5,319.813844 67.4,319.213844 L67.4,319.213844 Z M51.7,321.213844 L51.7,321.213844 C52.1,321.413844 52.3,321.813844 52.3,322.313844 L52.3,331.413844 C52.3,332.313844 51.3,332.913844 50.5,332.413844 L50.5,332.413844 C50.1,332.213844 49.9,331.813844 49.9,331.413844 L49.9,322.313844 C50,321.313844 50.9,320.813844 51.7,321.213844 L51.7,321.213844 Z M57,321.213844 L57,321.213844 C57.8,320.813844 58.7,321.413844 58.7,322.313844 L58.7,331.413844 C58.7,331.813844 58.5,332.213844 58.1,332.413844 L58.1,332.413844 C57.3,332.813844 56.3,332.313844 56.3,331.413844 L56.3,322.313844 C56.4,321.813844 56.6,321.413844 57,321.213844 L57,321.213844 Z M63.4,333.413844 L63.4,333.413844 C63,333.213844 62.8,332.813844 62.8,332.413844 L62.8,323.313844 C62.8,322.413844 63.7,321.813844 64.5,322.213844 L64.5,322.213844 C64.9,322.413844 65.1,322.813844 65.1,323.313844 L65.1,332.413844 C65.1,333.313844 64.1,333.813844 63.4,333.413844 L63.4,333.413844 Z" id="Shape"></path>
        </g>
    </g>
</svg>