<?xml version="1.0" encoding="UTF-8" standalone="no"?>
<svg width="53px" height="34px" viewBox="0 0 53 34" version="1.1" xmlns="http://www.w3.org/2000/svg" xmlns:xlink="http://www.w3.org/1999/xlink">
    <!-- Generator: Sketch 3.8.1 (29687) - http://www.bohemiancoding.com/sketch -->
    <title>Shape</title>
    <desc>Created with Sketch.</desc>
    <defs></defs>
    <g id="Page-1" stroke="none" stroke-width="1" fill="none" fill-rule="evenodd">
        <path d="M51.791657,22.8751083 L46.5823549,5.9448763 C45.2800293,1.5495276 40.5590992,-1.05512348 36.1637505,0.409992751 C33.3963088,1.22394621 31.2800298,3.50301591 30.4660763,6.27045768 L21.6753789,6.27045768 C20.8614254,3.6658066 18.9079371,1.38673691 15.9777047,0.409992751 C11.582356,-0.892332789 6.86142588,1.5495276 5.55910034,5.9448763 L0.349798182,22.8751083 C-0.952527358,27.270457 1.48933303,31.9913871 5.88468173,33.2937126 C10.2800304,34.5960382 15.0009605,32.1541778 16.3032861,27.7588291 L17.7684023,22.8751083 L34.0474715,22.8751083 L35.5125878,27.7588291 C36.8149133,32.1541778 41.5358434,34.7588289 45.9311921,33.2937126 C50.6521222,31.9913871 53.0939826,27.270457 51.791657,22.8751083 L51.791657,22.8751083 Z M15.6521233,15.8751085 L15.1637512,15.8751085 L15.1637512,16.3634806 C15.1637512,17.6658062 14.0242164,18.805341 12.7218908,18.805341 C11.4195653,18.805341 10.2800304,17.6658062 10.2800304,16.3634806 L10.2800304,15.8751085 L9.79165835,15.8751085 C8.48933281,15.8751085 7.34979796,14.7355737 7.34979796,13.4332482 C7.34979796,12.1309226 8.48933281,10.9913878 9.79165835,10.9913878 L10.2800304,10.9913878 L10.2800304,10.5030157 C10.2800304,9.20069015 11.4195653,8.0611553 12.7218908,8.0611553 C14.0242164,8.0611553 15.1637512,9.20069015 15.1637512,10.5030157 L15.1637512,10.9913878 L15.6521233,10.9913878 C16.9544488,10.9913878 18.0939837,12.1309226 18.0939837,13.4332482 C18.0939837,14.7355737 17.1172395,15.8751085 15.6521233,15.8751085 L15.6521233,15.8751085 Z M35.5125878,18.805341 C34.3730529,18.805341 33.3963088,17.8285969 33.3963088,16.689062 C33.3963088,15.5495272 34.3730529,14.572783 35.5125878,14.572783 C36.6521226,14.572783 37.6288668,15.5495272 37.6288668,16.689062 C37.6288668,17.8285969 36.6521226,18.805341 35.5125878,18.805341 L35.5125878,18.805341 Z M35.5125878,11.8053412 C34.3730529,11.8053412 33.3963088,10.8285971 33.3963088,9.68906223 C33.3963088,8.54952738 34.3730529,7.57278322 35.5125878,7.57278322 C36.6521226,7.57278322 37.6288668,8.54952738 37.6288668,9.68906223 C37.6288668,10.8285971 36.6521226,11.8053412 35.5125878,11.8053412 L35.5125878,11.8053412 Z M42.5125876,18.805341 C41.3730527,18.805341 40.3963085,17.8285969 40.3963085,16.689062 C40.3963085,15.5495272 41.3730527,14.572783 42.5125876,14.572783 C43.6521224,14.572783 44.6288666,15.5495272 44.6288666,16.689062 C44.6288666,17.8285969 43.6521224,18.805341 42.5125876,18.805341 L42.5125876,18.805341 Z M42.5125876,11.8053412 C41.3730527,11.8053412 40.3963085,10.8285971 40.3963085,9.68906223 C40.3963085,8.54952738 41.3730527,7.57278322 42.5125876,7.57278322 C43.6521224,7.57278322 44.6288666,8.54952738 44.6288666,9.68906223 C44.6288666,10.8285971 43.6521224,11.8053412 42.5125876,11.8053412 L42.5125876,11.8053412 Z" id="Shape" fill="#FFFFFF"></path>
    </g>
</svg>