<?xml version="1.0" encoding="UTF-8" standalone="no"?>
<svg width="42px" height="43px" viewBox="0 0 42 43" version="1.1" xmlns="http://www.w3.org/2000/svg" xmlns:xlink="http://www.w3.org/1999/xlink">
    <!-- Generator: Sketch 3.8.1 (29687) - http://www.bohemiancoding.com/sketch -->
    <title>Shape</title>
    <desc>Created with Sketch.</desc>
    <defs></defs>
    <g id="Page-1" stroke="none" stroke-width="1" fill="none" fill-rule="evenodd">
        <path d="M24.5933431,25.3045267 L41.2270879,4.06995885 C42.465771,2.47736626 41.4040427,0 39.2805859,0 L2.4740015,0 C0.350544711,0 -0.711183684,2.47736626 0.527499443,4.06995885 L16.8073348,24.9506173 C17.1612443,25.3045267 17.338199,26.0123457 17.338199,26.5432099 L17.338199,33.4444444 C17.338199,34.8600823 16.2764706,35.9218107 14.8608328,35.9218107 L12.3834665,35.9218107 L12.2065118,35.9218107 L11.8526023,35.9218107 C9.90610027,35.9218107 8.31350767,37.5144033 8.31350767,39.4609053 C8.31350767,41.4074074 9.90610027,43 11.8526023,43 L29.901985,43 C31.8484871,43 33.4410797,41.4074074 33.4410797,39.4609053 C33.4410797,37.5144033 31.8484871,35.9218107 29.901985,35.9218107 L29.7250303,35.9218107 L29.3711208,35.9218107 L26.5398451,35.744856 C25.1242073,35.744856 24.0624789,34.5061728 24.0624789,33.2674897 L24.0624789,26.8971193 C24.0624789,26.1893004 24.2394336,25.6584362 24.5933431,25.3045267 L24.5933431,25.3045267 Z M22.646841,19.6419753 C22.2929315,20.1728395 21.7620673,20.3497942 21.0542484,20.3497942 L20.1694748,20.3497942 C19.6386106,20.3497942 19.1077464,20.1728395 18.7538369,19.6419753 L17.338199,17.872428 C15.9225612,16.2798354 17.1612443,13.8024691 19.2847011,13.8024691 L22.2929315,13.8024691 C24.4163883,13.8024691 25.6550715,16.2798354 24.2394336,17.872428 L22.646841,19.6419753 L22.646841,19.6419753 Z" id="Shape" fill="#FFFFFF"></path>
    </g>
</svg>