<?xml version="1.0" encoding="UTF-8" standalone="no"?>
<svg width="24px" height="29px" viewBox="0 0 24 29" version="1.1" xmlns="http://www.w3.org/2000/svg" xmlns:xlink="http://www.w3.org/1999/xlink">
    <!-- Generator: Sketch 3.8.1 (29687) - http://www.bohemiancoding.com/sketch -->
    <title>Group</title>
    <desc>Created with Sketch.</desc>
    <defs></defs>
    <g id="Page-1" stroke="none" stroke-width="1" fill="none" fill-rule="evenodd">
        <g id="tails-screen-copy-4" transform="translate(-148.000000, -313.000000)" fill="#FFFFFF">
            <g id="Group" transform="translate(148.000000, 313.000000)">
                <path d="M2.5,9.6 L21.2,9.6 C22.4,9.6 23.4,8.6 23.4,7.4 C23.4,6.2 22.4,5.2 21.2,5.2 L20.1,5.2 L20.1,2.8 C20.1,1.7 19.2,0.8 18.1,0.8 C17,0.8 16.1,1.7 16.1,2.8 L16.1,5.2 L7.6,5.2 L7.6,2.9 C7.6,1.8 6.7,0.9 5.6,0.9 C4.5,0.9 3.6,1.8 3.6,2.9 L3.6,5.2 L2.5,5.2 C1.3,5.2 0.3,6.2 0.3,7.4 C0.3,8.6 1.3,9.6 2.5,9.6 L2.5,9.6 Z" id="Shape"></path>
                <path d="M21.6,11.9 L2.2,11.9 C1.4,11.9 0.8,12.5 0.8,13.3 L0.8,27.4 C0.8,28.2 1.4,28.8 2.2,28.8 L21.6,28.8 C22.4,28.8 23,28.2 23,27.4 L23,13.3 C23,12.6 22.3,11.9 21.6,11.9 Z M10.1,24.6 C10.1,25.4 9.4,26.1 8.6,26.1 C7.8,26.1 7.1,25.4 7.1,24.6 L7.1,18.5 L6.7,18.5 C5.9,18.5 5.2,17.8 5.2,17 C5.2,16.2 5.9,15.5 6.7,15.5 L8.6,15.5 C9.4,15.5 10.1,16.2 10.1,17 L10.1,24.6 Z M17.3,24.6 C17.3,25.4 16.6,26.1 15.8,26.1 C15,26.1 14.3,25.4 14.3,24.6 L14.3,18.5 L13.9,18.5 C13.1,18.5 12.4,17.8 12.4,17 C12.4,16.2 13.1,15.5 13.9,15.5 L15.8,15.5 C16.6,15.5 17.3,16.2 17.3,17 L17.3,24.6 Z" id="Shape"></path>
            </g>
        </g>
    </g>
</svg>