<svg width="24" height="16" viewBox="0 0 24 16" fill="none" xmlns="http://www.w3.org/2000/svg">
<path d="M19.35 6.04C19.0141 4.33772 18.0976 2.80486 16.7571 1.70325C15.4165 0.601633 13.7351 -0.000392242 12 1.91737e-07C10.6293 0.000375489 9.28505 0.377383 8.11407 1.08985C6.94308 1.80232 5.99038 2.82285 5.36 4.04C3.8886 4.19696 2.52721 4.89246 1.53772 5.99271C0.54823 7.09297 0.000536554 8.52025 0 10C0 13.31 2.69 16 6 16H19C21.76 16 24 13.76 24 11C24 8.36 21.95 6.22 19.35 6.04ZM19 14H6C3.79 14 2 12.21 2 10C2 7.79 3.79 6 6 6C8.21 6 10 7.79 10 10H12C12 7.24 10.14 4.92 7.6 4.22C8.61 2.88 10.2 2 12 2C15.03 2 17.5 4.47 17.5 7.5V8H19C20.65 8 22 9.35 22 11C22 12.65 20.65 14 19 14Z" fill="#A42F3A"/>
</svg>
