<svg width="201" height="66" viewBox="0 0 201 66" fill="none" xmlns="http://www.w3.org/2000/svg">
<rect x="39" y="8" width="25" height="38" rx="3" transform="rotate(90 39 8)" stroke="#D3D4D6" stroke-width="2"/>
<path d="M168.5 0L32.4168 13.0045C31.2103 13.1198 31.2103 14.8802 32.4168 14.9955L168.5 28V0Z" fill="#ECEDEF"/>
<ellipse cx="168.5" cy="14" rx="13.5" ry="14" fill="#ECEDEF"/>
<path d="M27 8L27 33" stroke="#D3D4D6" stroke-width="2"/>
<circle cx="32" cy="14" r="1" stroke="#D3D4D6" stroke-width="2" stroke-linecap="round" stroke-linejoin="round"/>
<circle cx="31.5" cy="19.5" r="1" stroke="#D3D4D6" stroke-linecap="round" stroke-linejoin="round"/>
<path d="M75.2919 54.8452C75.2919 56.6437 74.9847 57.9801 74.3705 58.8545C73.7562 59.7288 72.7961 60.166 71.4901 60.166C70.2007 60.166 69.2461 59.7399 68.6263 58.8877C68.0066 58.0299 67.6856 56.7516 67.6635 55.0527V53.0024C67.6635 51.2261 67.9706 49.9062 68.5848 49.043C69.1991 48.1797 70.162 47.748 71.4735 47.748C72.774 47.748 73.7313 48.1659 74.3456 49.0015C74.9598 49.8315 75.2753 51.1154 75.2919 52.853V54.8452ZM73.7562 52.7451C73.7562 51.4447 73.5736 50.4984 73.2084 49.9062C72.8431 49.3086 72.2649 49.0098 71.4735 49.0098C70.6877 49.0098 70.1149 49.3058 69.7552 49.8979C69.3955 50.4901 69.2102 51.4004 69.1991 52.6289V55.0859C69.1991 56.3919 69.3872 57.3576 69.7635 57.9829C70.1454 58.6027 70.7209 58.9126 71.4901 58.9126C72.2483 58.9126 72.8099 58.6193 73.1752 58.0327C73.5459 57.4461 73.7396 56.522 73.7562 55.2603V52.7451ZM84.0135 55.4927H79.9627V54.2393H84.0135V55.4927ZM90.9919 53.21H92.1457C92.8706 53.1989 93.4406 53.008 93.8557 52.6372C94.2707 52.2664 94.4782 51.7656 94.4782 51.1348C94.4782 49.7181 93.7727 49.0098 92.3615 49.0098C91.6975 49.0098 91.1662 49.2007 90.7678 49.5825C90.3749 49.9588 90.1784 50.4596 90.1784 51.085H88.6428C88.6428 50.1276 88.9914 49.3335 89.6887 48.7026C90.3915 48.0662 91.2824 47.748 92.3615 47.748C93.5015 47.748 94.3952 48.0496 95.0427 48.6528C95.6901 49.256 96.0139 50.0944 96.0139 51.168C96.0139 51.6937 95.8423 52.2028 95.4992 52.6953C95.1617 53.1878 94.6996 53.5558 94.113 53.7993C94.7771 54.0096 95.2889 54.3582 95.6486 54.8452C96.0139 55.3322 96.1965 55.9271 96.1965 56.6299C96.1965 57.7145 95.8423 58.575 95.134 59.2114C94.4257 59.8478 93.5043 60.166 92.3698 60.166C91.2354 60.166 90.3112 59.8589 89.5974 59.2446C88.889 58.6304 88.5349 57.8197 88.5349 56.8125H90.0788C90.0788 57.4489 90.2863 57.958 90.7014 58.3398C91.1164 58.7217 91.6726 58.9126 92.3698 58.9126C93.1114 58.9126 93.6786 58.7189 94.0715 58.3315C94.4644 57.9442 94.6608 57.388 94.6608 56.6631C94.6608 55.9603 94.445 55.4207 94.0134 55.0444C93.5817 54.6681 92.9592 54.4744 92.1457 54.4634H90.9919V53.21ZM101.657 58.9126C102.205 58.9126 102.684 58.7466 103.093 58.4146C103.503 58.0825 103.73 57.6675 103.774 57.1694H105.226C105.199 57.6841 105.022 58.1738 104.695 58.6387C104.369 59.1035 103.932 59.4743 103.384 59.751C102.841 60.0277 102.266 60.166 101.657 60.166C100.434 60.166 99.4602 59.7593 98.7353 58.9458C98.0159 58.1268 97.6562 57.009 97.6562 55.5923V55.335C97.6562 54.4606 97.8166 53.6831 98.1376 53.0024C98.4586 52.3218 98.9179 51.7933 99.5155 51.417C100.119 51.0407 100.83 50.8525 101.649 50.8525C102.656 50.8525 103.492 51.1541 104.156 51.7573C104.825 52.3605 105.182 53.1436 105.226 54.1064H103.774C103.73 53.5254 103.508 53.0495 103.11 52.6787C102.717 52.3024 102.23 52.1143 101.649 52.1143C100.869 52.1143 100.263 52.3965 99.831 52.9609C99.4049 53.5199 99.1918 54.3306 99.1918 55.3931V55.6836C99.1918 56.7184 99.4049 57.5153 99.831 58.0742C100.257 58.6331 100.866 58.9126 101.657 58.9126ZM107.989 51.0186L108.031 52.0146C108.689 51.2399 109.578 50.8525 110.695 50.8525C111.952 50.8525 112.807 51.334 113.26 52.2969C113.559 51.8652 113.947 51.5166 114.422 51.251C114.904 50.9854 115.471 50.8525 116.124 50.8525C118.094 50.8525 119.096 51.8957 119.129 53.9819V60H117.593V54.0732C117.593 53.4313 117.447 52.9526 117.153 52.6372C116.86 52.3162 116.368 52.1558 115.676 52.1558C115.106 52.1558 114.633 52.3273 114.256 52.6704C113.88 53.008 113.662 53.4645 113.601 54.04V60H112.057V54.1147C112.057 52.8088 111.418 52.1558 110.139 52.1558C109.132 52.1558 108.443 52.5846 108.072 53.4424V60H106.537V51.0186H107.989Z" fill="#6F7B83"/>
<path d="M160 35L160 24L194 24L194 35C194 44.3888 186.389 52 177 52C167.611 52 160 44.3888 160 35Z" stroke="#D3D4D6" stroke-width="2"/>
<path d="M173.75 19.5L171.826 17.5759C170.449 16.1995 170.854 13.8747 172.614 13.0435V13.0435C174.763 12.0287 174.763 8.97131 172.614 7.95652V7.95652C170.854 7.12532 170.449 4.80051 171.826 3.42408L173 2.25001" stroke="#D3D4D6" stroke-width="2" stroke-linecap="round"/>
<path d="M181.75 19.25L179.826 17.3259C178.449 15.9495 178.854 13.6247 180.614 12.7935V12.7935C182.763 11.7787 182.763 8.72131 180.614 7.70652V7.70652C178.854 6.87532 178.449 4.55051 179.826 3.17408L181 2.00001" stroke="#D3D4D6" stroke-width="2" stroke-linecap="round"/>
<path d="M154 58H199.5" stroke="#D3D4D6" stroke-width="2" stroke-linecap="round"/>
</svg>
