<?xml version="1.0" encoding="UTF-8" standalone="no"?>
<svg width="26px" height="26px" viewBox="0 0 26 26" version="1.1" xmlns="http://www.w3.org/2000/svg" xmlns:xlink="http://www.w3.org/1999/xlink">
    <!-- Generator: Sketch 43.2 (39069) - http://www.bohemiancoding.com/sketch -->
    <title>Group 8</title>
    <desc>Created with Sketch.</desc>
    <defs></defs>
    <g id="Main-app-Advanced+Simple-mode" stroke="none" stroke-width="1" fill="none" fill-rule="evenodd">
        <g id="Tapbar" transform="translate(-30.000000, -7.000000)" fill="#929292">
            <g id="Group-8" transform="translate(30.000000, 7.000000)">
                <path d="M0,1.00524639 C0,0.450064138 0.457021705,0 1.00524639,0 L11.0279486,0 C11.5831309,0 12.033195,0.457021705 12.033195,1.00524639 L12.033195,11.0279486 C12.033195,11.5831309 11.5761733,12.033195 11.0279486,12.033195 L1.00524639,12.033195 C0.450064138,12.033195 0,11.5761733 0,11.0279486 L0,1.00524639 Z M1,1 L1,11 L11,11 L11,1 L1,1 Z" id="Combined-Shape"></path>
                <path d="M13,1.00524639 C13,0.450064138 13.4570217,0 14.0052464,0 L24.0279486,0 C24.5831309,0 25.033195,0.457021705 25.033195,1.00524639 L25.033195,11.0279486 C25.033195,11.5831309 24.5761733,12.033195 24.0279486,12.033195 L14.0052464,12.033195 C13.4500641,12.033195 13,11.5761733 13,11.0279486 L13,1.00524639 Z M14,1 L14,11 L24,11 L24,1 L14,1 Z" id="Combined-Shape"></path>
                <path d="M0,14.0052464 C0,13.4500641 0.457021705,13 1.00524639,13 L11.0279486,13 C11.5831309,13 12.033195,13.4570217 12.033195,14.0052464 L12.033195,24.0279486 C12.033195,24.5831309 11.5761733,25.033195 11.0279486,25.033195 L1.00524639,25.033195 C0.450064138,25.033195 0,24.5761733 0,24.0279486 L0,14.0052464 Z M1,14 L1,24 L11,24 L11,14 L1,14 Z" id="Combined-Shape"></path>
                <path d="M13,14.0052464 C13,13.4500641 13.4570217,13 14.0052464,13 L24.0279486,13 C24.5831309,13 25.033195,13.4570217 25.033195,14.0052464 L25.033195,24.0279486 C25.033195,24.5831309 24.5761733,25.033195 24.0279486,25.033195 L14.0052464,25.033195 C13.4500641,25.033195 13,24.5761733 13,24.0279486 L13,14.0052464 Z M14,14 L14,24 L24,24 L24,14 L14,14 Z" id="Combined-Shape"></path>
            </g>
        </g>
    </g>
</svg>