<?xml version="1.0" encoding="UTF-8" standalone="no"?>
<svg width="19px" height="19px" viewBox="0 0 19 19" version="1.1" xmlns="http://www.w3.org/2000/svg" xmlns:xlink="http://www.w3.org/1999/xlink">
    <!-- Generator: Sketch 43.2 (39069) - http://www.bohemiancoding.com/sketch -->
    <title>Fill 214</title>
    <desc>Created with Sketch.</desc>
    <defs></defs>
    <g id="Main-app-Advanced+Simple-mode" stroke="none" stroke-width="1" fill="none" fill-rule="evenodd">
        <g id="Simple-mode/Dashboard/Emty-slot" transform="translate(-293.000000, -33.000000)" fill="#EE3696">
            <path d="M298.622105,48.3554426 L294.877521,50.6229652 C294.536661,50.7818939 294.229956,50.4528836 294.388885,50.133632 L296.65571,46.3862599 L298.622105,48.3554426 L298.622105,48.3554426 Z M305.211373,37.3433548 L307.67686,39.7760796 L299.841952,47.6158664 C298.924627,46.6971468 297.653894,45.425717 297.393892,45.1657152 L305.211373,37.3433548 L305.211373,37.3433548 Z M307.67686,34.8764743 C307.947317,34.6053195 308.385766,34.6053195 308.65692,34.8764743 L310.125617,36.3458679 C310.396075,36.6170226 310.396075,37.0554707 310.125617,37.3259284 L308.65692,38.7960191 L306.243016,36.3103181 L307.67686,34.8764743 L307.67686,34.8764743 Z M296.059728,44.9036222 L293.062388,50.9714931 C292.81075,51.6553048 293.357242,52.2673198 294.040357,51.9501595 L300.104045,48.9507283 C300.365441,48.8998432 300.61917,48.798073 300.821316,48.5959269 L311.594314,37.8152616 C312.135229,37.2750433 312.135229,36.396753 311.594314,35.8558377 L309.146253,33.4056865 C308.604641,32.8647712 307.728442,32.8647712 307.187527,33.4056865 L296.414529,44.1856547 C296.211686,44.3884979 296.11131,44.6422263 296.059728,44.9036222 L296.059728,44.9036222 Z" id="Fill-214"></path>
        </g>
    </g>
</svg>