<?xml version="1.0" encoding="UTF-8" standalone="no"?>
<svg width="25px" height="25px" viewBox="0 0 25 25" version="1.1" xmlns="http://www.w3.org/2000/svg" xmlns:xlink="http://www.w3.org/1999/xlink">
    <!-- Generator: Sketch 43.2 (39069) - http://www.bohemiancoding.com/sketch -->
    <title>Settings Icon - Inactive</title>
    <desc>Created with Sketch.</desc>
    <defs></defs>
    <g id="Main-app-Advanced+Simple-mode" stroke="none" stroke-width="1" fill="none" fill-rule="evenodd">
        <g id="Tapbar" transform="translate(-269.000000, -7.000000)" fill="#929292">
            <path d="M294.001531,20.0726924 L294.001531,18.9278178 L291.536785,18.5140507 C291.485766,17.9870207 291.384237,17.4758066 291.255158,16.9758168 L293.441848,15.7314545 L293.053081,14.6559662 L290.57507,15.1202424 C290.348544,14.6523948 290.094467,14.2018938 289.801106,13.7774127 L291.441889,11.8447991 L290.711292,10.9677762 L288.522051,12.26877 C288.156242,11.9136752 287.762372,11.5886819 287.346564,11.2922593 L288.242975,8.88159425 L287.258811,8.30915696 L285.628232,10.3045244 C285.171099,10.0989163 284.696618,9.92902186 284.206833,9.79280015 L284.230812,7.19897553 L283.111957,7 L282.25126,9.45250097 C282.002796,9.434134 281.753821,9.41474664 281.500765,9.41474664 C281.247709,9.41474664 280.998735,9.434134 280.75027,9.45250097 L279.889574,7 L278.770719,7.19897553 L278.794698,9.79280015 C278.304912,9.92902186 277.830432,10.0989163 277.373299,10.3045244 L275.74272,8.30915696 L274.758556,8.88159425 L275.654966,11.2922593 C275.239158,11.5891921 274.845289,11.9136752 274.47948,12.26877 L272.290239,10.9677762 L271.559642,11.8447991 L273.200424,13.7774127 C272.907573,14.2013836 272.652987,14.6523948 272.426461,15.1202424 L269.94845,14.6559662 L269.559682,15.7314545 L271.746373,16.9758168 C271.617294,17.4758066 271.515765,17.9870207 271.464746,18.5140507 L269,18.9278178 L269,20.0726924 L271.464746,20.4864595 C271.515765,21.0134895 271.617294,21.5247036 271.746373,22.0246934 L269.559682,23.2690557 L269.94845,24.344544 L272.426461,23.8802677 C272.652987,24.3481153 272.907063,24.7986164 273.200424,25.2225873 L271.559642,27.1552009 L272.290239,28.0322238 L274.47948,26.73123 C274.845289,27.0863248 275.239158,27.4113181 275.654966,27.7077407 L274.758556,30.1184057 L275.74272,30.690843 L277.373299,28.6954756 C277.830432,28.9005735 278.304912,29.0709781 278.794698,29.2071999 L278.770719,31.8010245 L279.889574,32 L280.75027,29.547499 C280.998735,29.565866 281.247709,29.5852534 281.500765,29.5852534 C281.753821,29.5852534 282.002796,29.565866 282.25126,29.547499 L283.111957,32 L284.230812,31.8010245 L284.206833,29.2071999 C284.696618,29.0709781 285.171099,28.9010837 285.628232,28.6954756 L287.258811,30.690843 L288.242975,30.1184057 L287.346564,27.7077407 C287.762372,27.4108079 288.156242,27.0863248 288.522051,26.73123 L290.711292,28.0322238 L291.441889,27.1552009 L289.801106,25.2225873 C290.093957,24.7986164 290.348544,24.3476052 290.57507,23.8802677 L293.053081,24.344544 L293.441848,23.2690557 L291.255158,22.0246934 C291.384237,21.5247036 291.485766,21.0134895 291.536785,20.4864595 L294.001531,20.0726924 L294.001531,20.0726924 Z M275.763637,25.1899349 C274.356013,23.7205771 273.485623,21.7160262 273.485623,19.5002551 C273.485623,17.1758127 274.440195,15.079427 275.970776,13.5932328 C276.491174,13.0881411 277.345238,13.2340564 277.704414,13.867717 L280.641089,19.0482235 C280.85435,19.4247464 280.840575,19.8920838 280.604355,20.2543213 L277.504418,25.0149385 C277.110549,25.6210486 276.262607,25.7103324 275.763637,25.1899349 L275.763637,25.1899349 Z M289.268974,21.4808269 C288.400624,25.0317749 285.255791,27.6633538 281.500765,27.6633538 C280.649762,27.6633538 279.830901,27.5271321 279.061529,27.2761168 C278.364095,27.0480602 278.093692,26.1837922 278.498276,25.5623763 L281.995143,20.005857 L288.170527,20.005857 C288.895002,20.005857 289.443971,20.764515 289.268974,21.4808269 L289.268974,21.4808269 Z M288.170527,18.9946532 L281.995143,18.9946532 L278.690619,13.3161976 C278.328381,12.676925 278.640109,11.8458195 279.337544,11.644293 C280.025285,11.4453174 280.75027,11.3371564 281.500765,11.3371564 C285.255791,11.3371564 288.400624,13.9692455 289.268974,17.5196833 C289.443971,18.2359952 288.895002,18.9946532 288.170527,18.9946532 L288.170527,18.9946532 Z" id="Settings-Icon---Inactive"></path>
        </g>
    </g>
</svg>