<?xml version="1.0" encoding="UTF-8"?>
<svg width="50px" height="50px" viewBox="0 0 50 50" version="1.1" xmlns="http://www.w3.org/2000/svg" xmlns:xlink="http://www.w3.org/1999/xlink">
    <!-- Generator: Sketch 52.5 (67469) - http://www.bohemiancoding.com/sketch -->
    <title>Combined Shape</title>
    <desc>Created with Sketch.</desc>
    <g id="Page-1" stroke="none" stroke-width="1" fill="none" fill-rule="evenodd">
        <g id="Tile-Icon" transform="translate(-178.000000, -205.000000)" fill="#FFFFFF">
            <g id="Group" transform="translate(153.000000, 177.000000)">
                <g id="Rocket" transform="translate(13.000000, 16.000000)">
                    <path d="M40.4605225,60.1775782 C40.4605225,60.7700012 38.2556753,67.8060118 37.3401199,70.697036 C37.2975126,70.8747026 37.1384478,71 36.9555076,71 C36.7725673,71 36.6135025,70.8747026 36.5708952,70.697036 C35.683024,67.796138 33.5394775,60.7403801 33.5394775,60.1815277 C33.5394775,58.2729416 35.0888062,56.7257268 37,56.7257268 C38.9111938,56.7257268 40.4605225,58.2729416 40.4605225,60.1815277 L40.4605225,60.1775782 Z M28.0982178,45.7422044 L21.339323,49.8891654 C21.1668522,49.9985892 20.9560997,50.0301079 20.7590963,49.9759401 C20.562093,49.9217723 20.3971981,49.7869659 20.3051211,49.6048023 C17.3190344,43.52134 19.6200275,36.1680352 25.5433635,32.864903 C25.7571915,32.7475699 26.0157484,32.7453881 26.2315314,32.8590961 C26.4473143,32.972804 26.5914417,33.1871824 26.6151367,33.4296796 C27.011081,37.3095944 27.6130709,41.1657738 28.4185633,44.9819282 C28.4812873,45.2772974 28.3535401,45.5804798 28.0982178,45.7422044 Z M45.909692,45.7422044 C45.6502539,45.5817249 45.5190682,45.2763057 45.5814367,44.9779787 C46.3878891,41.162 46.9898869,37.3057694 47.3848633,33.4257301 C47.4085583,33.183233 47.5526857,32.9688546 47.7684686,32.8551466 C47.9842516,32.7414386 48.2428085,32.7436204 48.4566365,32.8609535 C54.3799725,36.1640857 56.6809656,43.5173905 53.6948789,49.6008529 C53.604217,49.7817259 53.4414406,49.9160827 53.246492,49.9709546 C53.0515435,50.0258265 52.8424663,49.9961348 52.6705642,49.8891654 L45.909692,45.7422044 Z M42.8769559,11.3382258 C41.005895,11.711752 39.1018512,11.8956776 37.1937893,11.8872045 C35.163982,11.8977845 33.139042,11.6878859 31.1546831,11.2612108 C30.940092,11.2131422 30.760059,11.0682077 30.667481,10.8689917 C30.5749029,10.6697756 30.5802956,10.4389066 30.6820746,10.244218 C31.9367967,7.83251856 33.5354158,5.61546534 35.4279341,3.66239844 C35.8414264,3.23885633 36.4086591,3 37.0009887,3 C37.5933183,3 38.160551,3.23885633 38.5740434,3.66239844 C40.4880895,5.6349022 42.1011533,7.87786736 43.3614291,10.3192583 C43.4631007,10.5158967 43.4669875,10.7486688 43.3719373,10.9485831 C43.2768871,11.1484973 43.0938053,11.2926168 42.8769559,11.3382258 Z M44.4846158,12.7541168 C45.8819934,16.2460342 46.5884415,19.9753092 46.5648842,23.7356645 C46.5408761,27.7381574 46.2767439,31.7356181 45.7739076,35.7065587 C45.6078026,37.1204749 45.4061035,38.5363659 45.1806752,39.9325094 C44.7159765,42.7583672 44.1682252,45.5072099 43.5295116,48.0052602 C43.4230953,48.4041034 43.101315,48.7094158 42.6970088,48.7951576 C42.451806,48.8465009 42.2085807,48.8958695 41.9673329,48.9412886 C41.3987424,49.0437953 41.008631,49.5710257 41.0774842,50.1439073 C41.0774842,50.1439073 41.3345516,52.5372962 41.3345516,52.5609931 C41.3256038,52.7180662 41.2544593,52.8651343 41.1368075,52.969765 C40.5890562,53.5345416 38.9359152,53.9433135 36.9841805,53.9433135 C34.5796117,53.9433135 32.6338093,53.3252188 32.6338093,52.5609931 C32.6338093,52.5135993 32.9106511,50.1439073 32.9106511,50.1439073 C32.9795044,49.5710257 32.589393,49.0437953 32.0208025,48.9412886 C31.7755997,48.8958695 31.5343519,48.8465009 31.2911266,48.7951576 C30.8861801,48.7090684 30.5633571,48.404215 30.4546689,48.0052602 C30.2569247,47.1857418 30.0591806,46.3366021 29.8614364,45.467715 C28.9261571,41.1440849 28.2532607,36.7679833 27.8464236,32.3633182 C27.561672,29.3478851 27.409409,26.4055175 27.409409,23.7356645 C27.3948773,19.9451465 28.1230691,16.1884032 29.5529556,12.6771018 C29.7194187,12.2488537 30.1777001,12.0098931 30.6247288,12.1182494 C32.7763887,12.6310037 34.9817384,12.884916 37.1937893,12.8745761 C39.288548,12.8850918 41.3778926,12.6612077 43.4227298,12.2071129 C43.863255,12.1036541 44.3136702,12.3356741 44.4846158,12.7541168 Z M37,25.3154592 C38.7473772,25.3154592 40.1639063,23.9008629 40.1639063,22.1558699 C40.1639063,20.4108768 38.7473772,18.9962805 37,18.9962805 C35.2526228,18.9962805 33.8360937,20.4108768 33.8360937,22.1558699 C33.8360937,23.9008629 35.2526228,25.3154592 37,25.3154592 Z" id="Combined-Shape" transform="translate(37.000000, 37.000000) rotate(-315.000000) translate(-37.000000, -37.000000) "></path>
                </g>
            </g>
        </g>
    </g>
</svg>