<svg width="200" height="68" viewBox="0 0 200 68" fill="none" xmlns="http://www.w3.org/2000/svg">
<rect x="39" y="16" width="25" height="38" rx="3" transform="rotate(90 39 16)" stroke="#D3D4D6" stroke-width="2"/>
<path d="M30 16L30 41" stroke="#D3D4D6" stroke-width="2"/>
<circle cx="35" cy="22" r="1" stroke="#D3D4D6" stroke-width="2" stroke-linecap="round" stroke-linejoin="round"/>
<circle cx="34.5" cy="27.5" r="1" stroke="#D3D4D6" stroke-linecap="round" stroke-linejoin="round"/>
<path d="M175 8L36.5962 21.0044C35.3876 21.1179 35.3876 22.8821 36.5962 22.9956L175 36V8Z" fill="#ECEDEF"/>
<ellipse cx="172.5" cy="22" rx="13.5" ry="14" fill="#ECEDEF"/>
<circle cx="175" cy="34" r="2" fill="#D3D4D6"/>
<circle cx="163" cy="33" r="2" fill="#D3D4D6"/>
<path d="M169.125 31L166 44H171" stroke="#D3D4D6" stroke-width="2" stroke-linecap="round" stroke-linejoin="round"/>
<path d="M176.646 2C177.172 3.36083 177.347 6.96413 173.834 10.4907" stroke="#D3D4D6" stroke-width="2" stroke-linecap="round" stroke-linejoin="round"/>
<path d="M196 31C200 31 200 37 196 37" stroke="#D3D4D6" stroke-width="2" stroke-linecap="round" stroke-linejoin="round"/>
<path d="M175.674 26.7795L181.691 27.6968" stroke="#D3D4D6" stroke-width="2" stroke-linecap="round" stroke-linejoin="round"/>
<path d="M156.196 28.1304L160.469 25.5332" stroke="#D3D4D6" stroke-width="2" stroke-linecap="round" stroke-linejoin="round"/>
<path d="M75.2919 56.8452C75.2919 58.6437 74.9847 59.9801 74.3705 60.8545C73.7562 61.7288 72.7961 62.166 71.4901 62.166C70.2007 62.166 69.2461 61.7399 68.6263 60.8877C68.0066 60.0299 67.6856 58.7516 67.6635 57.0527V55.0024C67.6635 53.2261 67.9706 51.9062 68.5848 51.043C69.1991 50.1797 70.162 49.748 71.4735 49.748C72.774 49.748 73.7313 50.1659 74.3456 51.0015C74.9598 51.8315 75.2753 53.1154 75.2919 54.853V56.8452ZM73.7562 54.7451C73.7562 53.4447 73.5736 52.4984 73.2084 51.9062C72.8431 51.3086 72.2649 51.0098 71.4735 51.0098C70.6877 51.0098 70.1149 51.3058 69.7552 51.8979C69.3955 52.4901 69.2102 53.4004 69.1991 54.6289V57.0859C69.1991 58.3919 69.3872 59.3576 69.7635 59.9829C70.1454 60.6027 70.7209 60.9126 71.4901 60.9126C72.2483 60.9126 72.8099 60.6193 73.1752 60.0327C73.5459 59.4461 73.7396 58.522 73.7562 57.2603V54.7451ZM84.0135 57.4927H79.9627V56.2393H84.0135V57.4927ZM90.9919 55.21H92.1457C92.8706 55.1989 93.4406 55.008 93.8557 54.6372C94.2707 54.2664 94.4782 53.7656 94.4782 53.1348C94.4782 51.7181 93.7727 51.0098 92.3615 51.0098C91.6975 51.0098 91.1662 51.2007 90.7678 51.5825C90.3749 51.9588 90.1784 52.4596 90.1784 53.085H88.6428C88.6428 52.1276 88.9914 51.3335 89.6887 50.7026C90.3915 50.0662 91.2824 49.748 92.3615 49.748C93.5015 49.748 94.3952 50.0496 95.0427 50.6528C95.6901 51.256 96.0139 52.0944 96.0139 53.168C96.0139 53.6937 95.8423 54.2028 95.4992 54.6953C95.1617 55.1878 94.6996 55.5558 94.113 55.7993C94.7771 56.0096 95.2889 56.3582 95.6486 56.8452C96.0139 57.3322 96.1965 57.9271 96.1965 58.6299C96.1965 59.7145 95.8423 60.575 95.134 61.2114C94.4257 61.8478 93.5043 62.166 92.3698 62.166C91.2354 62.166 90.3112 61.8589 89.5974 61.2446C88.889 60.6304 88.5349 59.8197 88.5349 58.8125H90.0788C90.0788 59.4489 90.2863 59.958 90.7014 60.3398C91.1164 60.7217 91.6726 60.9126 92.3698 60.9126C93.1114 60.9126 93.6786 60.7189 94.0715 60.3315C94.4644 59.9442 94.6608 59.388 94.6608 58.6631C94.6608 57.9603 94.445 57.4207 94.0134 57.0444C93.5817 56.6681 92.9592 56.4744 92.1457 56.4634H90.9919V55.21ZM101.657 60.9126C102.205 60.9126 102.684 60.7466 103.093 60.4146C103.503 60.0825 103.73 59.6675 103.774 59.1694H105.226C105.199 59.6841 105.022 60.1738 104.695 60.6387C104.369 61.1035 103.932 61.4743 103.384 61.751C102.841 62.0277 102.266 62.166 101.657 62.166C100.434 62.166 99.4602 61.7593 98.7353 60.9458C98.0159 60.1268 97.6562 59.009 97.6562 57.5923V57.335C97.6562 56.4606 97.8166 55.6831 98.1376 55.0024C98.4586 54.3218 98.9179 53.7933 99.5155 53.417C100.119 53.0407 100.83 52.8525 101.649 52.8525C102.656 52.8525 103.492 53.1541 104.156 53.7573C104.825 54.3605 105.182 55.1436 105.226 56.1064H103.774C103.73 55.5254 103.508 55.0495 103.11 54.6787C102.717 54.3024 102.23 54.1143 101.649 54.1143C100.869 54.1143 100.263 54.3965 99.831 54.9609C99.4049 55.5199 99.1918 56.3306 99.1918 57.3931V57.6836C99.1918 58.7184 99.4049 59.5153 99.831 60.0742C100.257 60.6331 100.866 60.9126 101.657 60.9126ZM107.989 53.0186L108.031 54.0146C108.689 53.2399 109.578 52.8525 110.695 52.8525C111.952 52.8525 112.807 53.334 113.26 54.2969C113.559 53.8652 113.947 53.5166 114.422 53.251C114.904 52.9854 115.471 52.8525 116.124 52.8525C118.094 52.8525 119.096 53.8957 119.129 55.9819V62H117.593V56.0732C117.593 55.4313 117.447 54.9526 117.153 54.6372C116.86 54.3162 116.368 54.1558 115.676 54.1558C115.106 54.1558 114.633 54.3273 114.256 54.6704C113.88 55.008 113.662 55.4645 113.601 56.04V62H112.057V56.1147C112.057 54.8088 111.418 54.1558 110.139 54.1558C109.132 54.1558 108.443 54.5846 108.072 55.4424V62H106.537V53.0186H107.989Z" fill="#6F7B83"/>
<path d="M195 26.5V60H158V26.5C158 16.2827 166.283 8 176.5 8C186.717 8 195 16.2827 195 26.5Z" stroke="#D3D4D6" stroke-width="2"/>
<path d="M164 54H177.2L179 50" stroke="#D3D4D6" stroke-width="2" stroke-linecap="round"/>
</svg>
