<svg width="24" height="24" viewBox="0 0 24 24" fill="none" xmlns="http://www.w3.org/2000/svg">
<path d="M4 8H18V15V18C18 20.21 16.21 22 14 22H8C5.79 22 4 20.21 4 18V8Z" fill="#D7A8AE"/>
<path fill-rule="evenodd" clip-rule="evenodd" d="M9.41147 7H8.41147C8.72328 5.74358 8.26973 5.27776 8.02269 5.02404C8.00036 5.0011 7.97971 4.9799 7.96147 4.96C7.10147 4.05 6.86147 3.11 7.07147 2H8.06147C7.84692 3.23853 8.08888 3.526 8.49055 4.00324L8.52147 4.04C9.62777 5.34386 9.56325 5.83789 9.41694 6.9581L9.41147 7ZM11.8915 7H10.8915C11.2155 5.73151 10.7509 5.26888 10.4977 5.01678L10.4977 5.01677L10.4976 5.01669L10.4976 5.01668C10.4774 4.99654 10.4585 4.97775 10.4415 4.96C9.58147 4.05 9.34147 3.11 9.55147 2H10.5415C10.3256 3.23629 10.5719 3.52912 10.9779 4.012L11.0015 4.04C12.1078 5.34386 12.0433 5.83789 11.8969 6.9581L11.8915 7ZM13.4115 7H14.4115L14.4169 6.9581C14.5632 5.83789 14.6278 5.34386 13.5215 4.04L13.4906 4.00324C13.0889 3.526 12.8469 3.23853 13.0615 2H12.0715C11.8615 3.11 12.1015 4.05 12.9615 4.96C12.9797 4.9799 13.0004 5.0011 13.0227 5.02404C13.2697 5.27776 13.7233 5.74358 13.4115 7ZM20 8H4V18C4 20.21 5.79 22 8 22H14C16.21 22 18 20.21 18 18V15H20C21.11 15 22 14.11 22 13V10C22 8.89 21.11 8 20 8ZM16 10H6V18C6 19.1046 6.89543 20 8 20H14C15.1046 20 16 19.1046 16 18V10ZM18 10H20V13H18V10Z" fill="#A42F3A"/>
</svg>
