<svg width="18" height="20" viewBox="0 0 18 20" fill="none" xmlns="http://www.w3.org/2000/svg">
<path fill-rule="evenodd" clip-rule="evenodd" d="M5.41147 5H4.41147C4.72328 3.74358 4.26973 3.27776 4.02269 3.02404C4.00036 3.0011 3.97971 2.9799 3.96147 2.96C3.10147 2.05 2.86147 1.11 3.07147 0H4.06147C3.84692 1.23853 4.08888 1.526 4.49055 2.00324L4.52147 2.04C5.62777 3.34386 5.56325 3.83789 5.41694 4.9581L5.41147 5ZM7.89147 5H6.89147C7.21554 3.73151 6.75089 3.26888 6.49768 3.01678L6.49767 3.01677L6.49759 3.01669L6.49758 3.01668C6.47736 2.99654 6.45848 2.97775 6.44147 2.96C5.58147 2.05 5.34147 1.11 5.55147 0H6.54147C6.32561 1.23629 6.57186 1.52912 6.97794 2.012L7.00147 2.04C8.10777 3.34386 8.04325 3.83789 7.89694 4.9581L7.89147 5ZM9.41147 5H10.4115L10.4169 4.9581C10.5632 3.83789 10.6278 3.34386 9.52147 2.04L9.49055 2.00324C9.08888 1.526 8.84692 1.23853 9.06147 0H8.07147C7.86147 1.11 8.10147 2.05 8.96147 2.96C8.97971 2.9799 9.00036 3.0011 9.02269 3.02404C9.26973 3.27776 9.72328 3.74358 9.41147 5ZM16 6H0V16C0 18.21 1.79 20 4 20H10C12.21 20 14 18.21 14 16V13H16C17.11 13 18 12.11 18 11V8C18 6.89 17.11 6 16 6ZM12 8H2V16C2 17.1046 2.89543 18 4 18H10C11.1046 18 12 17.1046 12 16V8ZM14 8H16V11H14V8Z" fill="#112331"/>
</svg>
