<?xml version="1.0" encoding="UTF-8" standalone="no"?>
<svg width="17px" height="21px" viewBox="0 0 17 21" version="1.1" xmlns="http://www.w3.org/2000/svg" xmlns:xlink="http://www.w3.org/1999/xlink">
    <!-- Generator: Sketch 3.8.1 (29687) - http://www.bohemiancoding.com/sketch -->
    <title>Group</title>
    <desc>Created with Sketch.</desc>
    <defs></defs>
    <g id="Page-1" stroke="none" stroke-width="1" fill="none" fill-rule="evenodd">
        <g id="tails-screen-copy-4" transform="translate(-15.000000, -185.000000)" fill="#FFFFFF">
            <g id="Group" transform="translate(15.000000, 185.000000)">
                <path d="M5.75555556,14.3888889 L5.75555556,2.41111111 C5.75555556,1.16666667 4.74444444,0.233333333 3.57777778,0.233333333 C2.33333333,0.233333333 1.4,1.24444444 1.4,2.41111111 L1.4,14.3888889 C0.544444444,15.0888889 0,16.1 0,17.2666667 C0,19.2888889 1.63333333,20.8444444 3.57777778,20.8444444 C5.52222222,20.8444444 7.15555556,19.2111111 7.15555556,17.2666667 C7.15555556,16.0222222 6.61111111,15.0111111 5.75555556,14.3888889 Z M15.9444444,4.82222222 L15.8666667,4.66666667 C15.8666667,4.66666667 15.8666667,4.58888889 15.7888889,4.58888889 L14.2333333,1.55555556 C13.8444444,0.777777778 12.7555556,0.777777778 12.2888889,1.55555556 L10.5777778,4.51111111 C10.5777778,4.58888889 10.5,4.58888889 10.5,4.66666667 L10.4222222,4.82222222 C10.1888889,5.44444444 10.1111111,6.06666667 10.2666667,6.84444444 C10.5777778,7.93333333 11.4333333,8.78888889 12.5222222,9.02222222 C14.4666667,9.41111111 16.1777778,7.93333333 16.1777778,6.06666667 C16.1777778,5.6 16.1,5.21111111 15.9444444,4.82222222 Z" id="Combined-Shape"></path>
            </g>
        </g>
    </g>
</svg>