<?xml version="1.0" encoding="UTF-8" standalone="no"?>
<svg width="18px" height="10px" viewBox="0 0 18 10" version="1.1" xmlns="http://www.w3.org/2000/svg" xmlns:xlink="http://www.w3.org/1999/xlink">
    <!-- Generator: Sketch 3.8.1 (29687) - http://www.bohemiancoding.com/sketch -->
    <title>Combined Shape</title>
    <desc>Created with Sketch.</desc>
    <defs></defs>
    <g id="Page-1" stroke="none" stroke-width="1" fill="none" fill-rule="evenodd">
        <g id="Group-3" fill="#EE3696">
            <path d="M10.896,0.522777221 L7.296,2.06182255 C7.2,2.10846029 7.104,2.10846029 6.96,2.10846029 L0.672,2.10846029 C0.288,2.10846029 0,2.38828671 0,2.76138861 L0,7.28524913 C0,7.65835102 0.288,7.93817745 0.672,7.93817745 L7.056,7.98481519 L10.896,9.57049825 C11.424,9.80368694 12,9.43058504 12,8.87093219 L12,1.22234328 C12,0.70932817 11.424,0.336226272 10.896,0.522777221 Z M5.376,6.07266796 L3.12,6.07266796 C2.448,6.07266796 1.92,5.55965285 1.92,4.90672453 C1.92,4.2537962 2.448,3.74078109 3.12,3.74078109 L5.376,3.74078109 C6.048,3.74078109 6.576,4.2537962 6.576,4.90672453 C6.576,5.55965285 6.048,6.07266796 5.376,6.07266796 Z M17.04,5.93275475 L15.216,5.93275475 C14.688,5.93275475 14.256,5.51301511 14.256,5 C14.256,4.48698489 14.688,4.06724525 15.216,4.06724525 L17.04,4.06724525 C17.568,4.06724525 18,4.48698489 18,5 C18,5.51301511 17.568,5.93275475 17.04,5.93275475 Z M16.032,1.68872065 L14.496,2.48156219 C14.064,2.80802635 13.488,2.71475087 13.152,2.29501124 C12.816,1.8752716 12.912,1.31561876 13.344,0.989154594 L14.88,0.19631306 C15.312,-0.130151101 15.888,-0.036875626 16.224,0.382864009 C16.56,0.802603645 16.416,1.36225649 16.032,1.68872065 Z M13.344,9.01084541 L14.88,9.80368694 C15.312,10.1301511 15.888,10.0368756 16.224,9.61713599 C16.56,9.19739636 16.464,8.63774351 16.032,8.31127935 L14.496,7.51843781 C14.064,7.19197365 13.488,7.28524913 13.152,7.70498876 C12.816,8.1247284 12.912,8.68438124 13.344,9.01084541 Z" id="Combined-Shape"></path>
        </g>
    </g>
</svg>