<?xml version="1.0" encoding="UTF-8" standalone="no"?>
<svg width="18px" height="12px" viewBox="0 0 18 12" version="1.1" xmlns="http://www.w3.org/2000/svg" xmlns:xlink="http://www.w3.org/1999/xlink">
    <!-- Generator: Sketch 3.8.1 (29687) - http://www.bohemiancoding.com/sketch -->
    <title>Shape</title>
    <desc>Created with Sketch.</desc>
    <defs></defs>
    <g id="Page-1" stroke="none" stroke-width="1" fill="none" fill-rule="evenodd">
        <path d="M17.879907,8.14454365 L16.0815124,2.11663717 C15.6319137,0.551699909 14.0021186,-0.37567032 12.4847231,0.145975434 C11.5293259,0.43577863 10.7987281,1.24722758 10.517729,2.23255845 L7.48293801,2.23255845 C7.20193884,1.30518822 6.52754086,0.493739269 5.51594387,0.145975434 C3.9985484,-0.31770968 2.36875326,0.551699909 1.9191546,2.11663717 L0.12075997,8.14454365 C-0.328838688,9.70948091 0.514158797,11.3903395 2.03155427,11.8540246 C3.54894974,12.3177097 5.17874488,11.4483001 5.62834354,9.88336283 L6.13414203,8.14454365 L11.7541253,8.14454365 L12.2599238,9.88336283 C12.7095224,11.4483001 14.3393176,12.3756703 15.856713,11.8540246 C17.4865082,11.3903395 18.3295056,9.70948091 17.879907,8.14454365 L17.879907,8.14454365 Z M5.40354421,5.65223616 L5.23494471,5.65223616 L5.23494471,5.82611808 C5.23494471,6.2898032 4.84154589,6.69552767 4.39194723,6.69552767 C3.94234857,6.69552767 3.54894974,6.2898032 3.54894974,5.82611808 L3.54894974,5.65223616 L3.38035025,5.65223616 C2.93075159,5.65223616 2.53735276,5.24651169 2.53735276,4.78282658 C2.53735276,4.31914146 2.93075159,3.91341699 3.38035025,3.91341699 L3.54894974,3.91341699 L3.54894974,3.73953507 C3.54894974,3.27584995 3.94234857,2.87012548 4.39194723,2.87012548 C4.84154589,2.87012548 5.23494471,3.27584995 5.23494471,3.73953507 L5.23494471,3.91341699 L5.40354421,3.91341699 C5.85314287,3.91341699 6.24654169,4.31914146 6.24654169,4.78282658 C6.24654169,5.24651169 5.9093427,5.65223616 5.40354421,5.65223616 L5.40354421,5.65223616 Z M12.2599238,6.69552767 C11.8665249,6.69552767 11.5293259,6.34776384 11.5293259,5.94203936 C11.5293259,5.53631489 11.8665249,5.18855105 12.2599238,5.18855105 C12.6533226,5.18855105 12.9905216,5.53631489 12.9905216,5.94203936 C12.9905216,6.34776384 12.6533226,6.69552767 12.2599238,6.69552767 L12.2599238,6.69552767 Z M12.2599238,4.20322018 C11.8665249,4.20322018 11.5293259,3.85545635 11.5293259,3.44973187 C11.5293259,3.0440074 11.8665249,2.69624356 12.2599238,2.69624356 C12.6533226,2.69624356 12.9905216,3.0440074 12.9905216,3.44973187 C12.9905216,3.85545635 12.6533226,4.20322018 12.2599238,4.20322018 L12.2599238,4.20322018 Z M14.6765165,6.69552767 C14.2831177,6.69552767 13.9459187,6.34776384 13.9459187,5.94203936 C13.9459187,5.53631489 14.2831177,5.18855105 14.6765165,5.18855105 C15.0699154,5.18855105 15.4071144,5.53631489 15.4071144,5.94203936 C15.4071144,6.34776384 15.0699154,6.69552767 14.6765165,6.69552767 L14.6765165,6.69552767 Z M14.6765165,4.20322018 C14.2831177,4.20322018 13.9459187,3.85545635 13.9459187,3.44973187 C13.9459187,3.0440074 14.2831177,2.69624356 14.6765165,2.69624356 C15.0699154,2.69624356 15.4071144,3.0440074 15.4071144,3.44973187 C15.4071144,3.85545635 15.0699154,4.20322018 14.6765165,4.20322018 L14.6765165,4.20322018 Z" id="Shape" fill="#EE3696"></path>
    </g>
</svg>