<?xml version="1.0" encoding="UTF-8" standalone="no"?>
<svg width="10px" height="16px" viewBox="0 0 10 16" version="1.1" xmlns="http://www.w3.org/2000/svg" xmlns:xlink="http://www.w3.org/1999/xlink">
    <!-- Generator: Sketch 3.8.1 (29687) - http://www.bohemiancoding.com/sketch -->
    <title>Shape</title>
    <desc>Created with Sketch.</desc>
    <defs></defs>
    <g id="Page-1" stroke="none" stroke-width="1" fill="none" fill-rule="evenodd">
        <path d="M7.18954248,1.71193416 L7.18954248,0.9218107 C7.18954248,0.395061728 6.79738562,0 6.2745098,0 L3.7254902,0 C3.20261438,0 2.81045752,0.395061728 2.81045752,0.9218107 L2.81045752,1.71193416 C2.81045752,2.23868313 2.41830065,2.63374486 1.89542484,2.63374486 L0.91503268,2.63374486 C0.392156863,2.63374486 0,3.02880658 0,3.55555556 L0,15.0781893 C0,15.6049383 0.392156863,16 0.91503268,16 L9.08496732,16 C9.60784314,16 10,15.6049383 10,15.0781893 L10,3.55555556 C10,3.02880658 9.60784314,2.63374486 9.08496732,2.63374486 L8.10457516,2.63374486 C7.64705882,2.63374486 7.18954248,2.23868313 7.18954248,1.71193416 L7.18954248,1.71193416 Z" id="Shape" fill="#EE3696"></path>
    </g>
</svg>