<?xml version="1.0" encoding="UTF-8" standalone="no"?>
<svg width="20px" height="19px" viewBox="0 0 20 19" version="1.1" xmlns="http://www.w3.org/2000/svg" xmlns:xlink="http://www.w3.org/1999/xlink">
    <!-- Generator: Sketch 3.8.1 (29687) - http://www.bohemiancoding.com/sketch -->
    <title>Combined Shape</title>
    <desc>Created with Sketch.</desc>
    <defs></defs>
    <g id="Page-1" stroke="none" stroke-width="1" fill="none" fill-rule="evenodd">
        <path d="M10.0566815,4.99553991 L8.62001275,4.11757564 L8.62001275,0.685533533 C8.62001275,0.126829003 7.98149328,-0.192430728 7.50260369,0.126829003 C6.30537969,0.924978331 5.5870453,2.28183219 5.5870453,3.79831591 C5.5870453,5.55424444 6.62463943,7.07072816 8.06130822,7.86887749 L8.06130822,16.8879649 C8.06130822,17.8457441 8.69982768,18.8035233 9.73742181,18.9631532 C11.0144607,19.202598 12.1318698,18.2448188 12.1318698,16.9677798 L12.1318698,7.86887749 C13.5685386,7.15054309 14.6061327,5.63405937 14.6061327,3.79831591 C14.6061327,2.28183219 13.8079834,0.924978331 12.6905743,0.126829003 C12.2116847,-0.192430728 11.5731653,0.126829003 11.5731653,0.685533533 L11.5731653,4.11757564 L10.0566815,4.99553991 Z M4.6292661,16.601506 C4.23019144,16.601506 3.83111678,16.4418762 3.51185704,16.1226164 L0.478889597,13.089649 C0.159629866,12.7703893 0,12.3713146 0,11.9722399 C0,11.5731653 0.159629866,11.1740906 0.478889597,10.8548309 L3.67148691,7.66223355 C4.31000637,7.02371409 5.26778557,7.02371409 5.90630503,7.66223355 C6.54482449,8.30075301 6.54482449,9.25853221 5.90630503,9.89705167 L3.83111678,11.9722399 L5.74667516,13.8877983 C6.38519463,14.5263178 6.38519463,15.484097 5.74667516,16.1226164 C5.42741543,16.5216911 5.02834077,16.601506 4.6292661,16.601506 Z M15.3244671,16.601506 C14.9253924,16.601506 14.5263178,16.4418762 14.207058,16.1226164 C13.5685386,15.484097 13.5685386,14.5263178 14.207058,13.8877983 L16.1226164,11.9722399 L14.0474282,9.89705167 C13.4089087,9.25853221 13.4089087,8.30075301 14.0474282,7.66223355 C14.6859476,7.02371409 15.6437268,7.02371409 16.2822463,7.66223355 L19.4748436,10.8548309 C20.1133631,11.4933503 20.1133631,12.4511295 19.4748436,13.089649 L16.4418762,16.1226164 C16.1226164,16.5216911 15.7235418,16.601506 15.3244671,16.601506 Z" id="Combined-Shape" fill="#E74290"></path>
    </g>
</svg>