<?xml version="1.0" encoding="UTF-8" standalone="no"?>
<svg width="17px" height="17px" viewBox="0 0 17 17" version="1.1" xmlns="http://www.w3.org/2000/svg" xmlns:xlink="http://www.w3.org/1999/xlink">
    <!-- Generator: Sketch 3.8.1 (29687) - http://www.bohemiancoding.com/sketch -->
    <title>Group</title>
    <desc>Created with Sketch.</desc>
    <defs></defs>
    <g id="Page-1" stroke="none" stroke-width="1" fill="none" fill-rule="evenodd">
        <g id="Group" fill="#EE3696">
            <path d="M8.25714286,3.07507389 C8.8835468,3.07507389 9.39605911,2.56256158 9.39605911,1.93615764 L9.39605911,1.13891626 C9.39605911,0.512512315 8.8835468,0 8.25714286,0 C7.63073892,0 7.1182266,0.512512315 7.1182266,1.13891626 L7.1182266,1.93615764 C7.1182266,2.56256158 7.63073892,3.07507389 8.25714286,3.07507389 Z M15.4323153,7.1182266 L14.6350739,7.1182266 C14.00867,7.1182266 13.4961576,7.63073892 13.4961576,8.25714286 C13.4961576,8.8835468 14.00867,9.39605911 14.6350739,9.39605911 L15.4323153,9.39605911 C16.0587192,9.39605911 16.5712315,8.8835468 16.5712315,8.25714286 C16.5712315,7.63073892 16.0587192,7.1182266 15.4323153,7.1182266 Z M3.07507389,8.25714286 C3.07507389,7.63073892 2.56256158,7.1182266 1.93615764,7.1182266 L1.13891626,7.1182266 C0.512512315,7.1182266 0,7.63073892 0,8.25714286 C0,8.8835468 0.512512315,9.39605911 1.13891626,9.39605911 L1.93615764,9.39605911 C2.56256158,9.39605911 3.07507389,8.8835468 3.07507389,8.25714286 Z M3.1320197,4.72650246 C3.35980296,4.95428571 3.64453202,5.06817734 3.92926108,5.06817734 C4.21399015,5.06817734 4.49871921,4.95428571 4.72650246,4.72650246 C5.18206897,4.27093596 5.18206897,3.58758621 4.72650246,3.1320197 L4.10009852,2.50561576 C3.64453202,2.05004926 2.96118227,2.05004926 2.50561576,2.50561576 C2.05004926,2.96118227 2.05004926,3.64453202 2.50561576,4.10009852 L3.1320197,4.72650246 Z M13.382266,11.7877833 C12.9266995,11.3322167 12.2433498,11.3322167 11.7877833,11.7877833 C11.3322167,12.2433498 11.3322167,12.9266995 11.7877833,13.382266 L12.4141872,14.00867 C12.6419704,14.2364532 12.9266995,14.3503448 13.2114286,14.3503448 C13.4961576,14.3503448 13.7808867,14.2364532 14.00867,14.00867 C14.4642365,13.5531034 14.4642365,12.8697537 14.00867,12.4141872 L13.382266,11.7877833 Z M12.5850246,5.06817734 C12.8697537,5.06817734 13.1544828,4.95428571 13.382266,4.72650246 L14.00867,4.10009852 C14.4642365,3.64453202 14.4642365,2.96118227 14.00867,2.50561576 C13.5531034,2.05004926 12.8697537,2.05004926 12.4141872,2.50561576 L11.7877833,3.1320197 C11.3322167,3.58758621 11.3322167,4.27093596 11.7877833,4.72650246 C12.0155665,4.95428571 12.3002956,5.06817734 12.5850246,5.06817734 Z M3.1320197,11.7877833 L2.50561576,12.4141872 C2.05004926,12.8697537 2.05004926,13.5531034 2.50561576,14.00867 C2.73339901,14.2364532 3.01812808,14.3503448 3.30285714,14.3503448 C3.58758621,14.3503448 3.87231527,14.2364532 4.10009852,14.00867 L4.72650246,13.382266 C5.18206897,12.9266995 5.18206897,12.2433498 4.72650246,11.7877833 C4.27093596,11.3322167 3.58758621,11.3322167 3.1320197,11.7877833 Z M11.6169458,8.25714286 C11.6169458,6.43487685 10.1363547,4.8973399 8.25714286,4.8973399 C6.37793103,4.8973399 4.8973399,6.37793103 4.8973399,8.25714286 C4.8973399,9.68078818 5.80847291,10.9335961 7.1182266,11.3891626 L7.1182266,15.3753695 C7.1182266,16.0017734 7.63073892,16.5142857 8.25714286,16.5142857 C8.8835468,16.5142857 9.39605911,16.0017734 9.39605911,15.3753695 L9.39605911,11.3891626 C10.7058128,10.9335961 11.6169458,9.73773399 11.6169458,8.25714286 Z" id="Combined-Shape"></path>
        </g>
    </g>
</svg>