<?xml version="1.0" encoding="UTF-8" standalone="no"?>
<svg width="14px" height="11px" viewBox="0 0 14 11" version="1.1" xmlns="http://www.w3.org/2000/svg" xmlns:xlink="http://www.w3.org/1999/xlink">
    <!-- Generator: Sketch 3.8.1 (29687) - http://www.bohemiancoding.com/sketch -->
    <title>Shape</title>
    <desc>Created with Sketch.</desc>
    <defs></defs>
    <g id="Page-1" stroke="none" stroke-width="1" fill="none" fill-rule="evenodd">
        <path d="M13.8521127,3.99528302 L10.2535211,0.20754717 C10.1549296,0.103773585 9.95774648,0 9.80985915,0 L0.591549296,0 C0.246478873,0 0,0.311320755 0,0.622641509 L0,10.3773585 C0,10.740566 0.295774648,11 0.591549296,11 L13.4084507,11 C13.7535211,11 14,10.6886792 14,10.3773585 L14,4.46226415 C14,4.30660377 13.9507042,4.0990566 13.8521127,3.99528302 L13.8521127,3.99528302 Z M11.6338028,9.39150943 L9.41549296,9.39150943 C9.02112676,9.39150943 8.67605634,9.02830189 8.67605634,8.61320755 C8.67605634,8.19811321 9.02112676,7.83490566 9.41549296,7.83490566 L11.6338028,7.83490566 C12.028169,7.83490566 12.3732394,8.19811321 12.3732394,8.61320755 C12.3732394,9.02830189 12.028169,9.39150943 11.6338028,9.39150943 L11.6338028,9.39150943 Z M11.6338028,6.33018868 L9.41549296,6.33018868 C9.02112676,6.33018868 8.67605634,5.96698113 8.67605634,5.55188679 C8.67605634,5.13679245 9.02112676,4.77358491 9.41549296,4.77358491 L11.6338028,4.77358491 C12.028169,4.77358491 12.3732394,5.13679245 12.3732394,5.55188679 C12.3732394,5.96698113 12.028169,6.33018868 11.6338028,6.33018868 L11.6338028,6.33018868 Z" id="Shape" fill="#EE3696"></path>
    </g>
</svg>