<?xml version="1.0" encoding="UTF-8" standalone="no"?>
<svg width="13px" height="14px" viewBox="0 0 13 14" version="1.1" xmlns="http://www.w3.org/2000/svg" xmlns:xlink="http://www.w3.org/1999/xlink">
    <!-- Generator: Sketch 3.8.1 (29687) - http://www.bohemiancoding.com/sketch -->
    <title>Shape</title>
    <desc>Created with Sketch.</desc>
    <defs></defs>
    <g id="Page-1" stroke="none" stroke-width="1" fill="none" fill-rule="evenodd">
        <path d="M7.6569661,8.23868313 L12.8357667,1.32510288 C13.2214221,0.806584362 12.8908603,0 12.2297369,0 L0.770263138,0 C0.109139654,0 -0.221422088,0.806584362 0.164233278,1.32510288 L5.23284666,8.12345679 C5.3430339,8.23868313 5.39812753,8.4691358 5.39812753,8.64197531 L5.39812753,10.8888889 C5.39812753,11.3497942 5.06756578,11.6954733 4.6268168,11.6954733 L3.85550606,11.6954733 L3.80041244,11.6954733 L3.69022519,11.6954733 C3.08419533,11.6954733 2.58835272,12.2139918 2.58835272,12.8477366 C2.58835272,13.4814815 3.08419533,14 3.69022519,14 L9.30977481,14 C9.91580467,14 10.4116473,13.4814815 10.4116473,12.8477366 C10.4116473,12.2139918 9.91580467,11.6954733 9.30977481,11.6954733 L9.25468118,11.6954733 L9.14449394,11.6954733 L8.26299596,11.6378601 C7.82224697,11.6378601 7.49168523,11.2345679 7.49168523,10.8312757 L7.49168523,8.75720165 C7.49168523,8.52674897 7.54677885,8.35390947 7.6569661,8.23868313 L7.6569661,8.23868313 Z M7.05093624,6.39506173 C6.94074899,6.56790123 6.77546812,6.6255144 6.55509362,6.6255144 L6.27962551,6.6255144 C6.11434463,6.6255144 5.94906376,6.56790123 5.83887652,6.39506173 L5.39812753,5.81893004 C4.95737854,5.30041152 5.3430339,4.49382716 6.00415739,4.49382716 L6.94074899,4.49382716 C7.60187247,4.49382716 7.98752784,5.30041152 7.54677885,5.81893004 L7.05093624,6.39506173 L7.05093624,6.39506173 Z" id="Shape" fill="#EE3696"></path>
    </g>
</svg>