<?xml version="1.0" encoding="UTF-8" standalone="no"?>
<svg width="51px" height="29px" viewBox="0 0 51 29" version="1.1" xmlns="http://www.w3.org/2000/svg" xmlns:xlink="http://www.w3.org/1999/xlink">
    <!-- Generator: Sketch 3.8.1 (29687) - http://www.bohemiancoding.com/sketch -->
    <title>Group 3</title>
    <desc>Created with Sketch.</desc>
    <defs></defs>
    <g id="Page-1" stroke="none" stroke-width="1" fill="none" fill-rule="evenodd">
        <g id="Group-3" fill="#FFFFFF">
            <path d="M30.872,1.51605394 L20.672,5.9792854 C20.4,6.11453484 20.128,6.11453484 19.72,6.11453484 L1.904,6.11453484 C0.816,6.11453484 0,6.92603147 0,8.00802697 L0,21.1272225 C0,22.209218 0.816,23.0207146 1.904,23.0207146 L19.992,23.155964 L30.872,27.7544449 C32.368,28.4306921 34,27.3486966 34,25.7257034 L34,3.54479551 C34,2.05705169 32.368,0.975056189 30.872,1.51605394 Z M15.232,17.6107371 L8.84,17.6107371 C6.936,17.6107371 5.44,16.1229933 5.44,14.2295011 C5.44,12.336009 6.936,10.8482652 8.84,10.8482652 L15.232,10.8482652 C17.136,10.8482652 18.632,12.336009 18.632,14.2295011 C18.632,16.1229933 17.136,17.6107371 15.232,17.6107371 Z M48.28,17.2049888 L43.112,17.2049888 C41.616,17.2049888 40.392,15.9877438 40.392,14.5 C40.392,13.0122562 41.616,11.7950112 43.112,11.7950112 L48.28,11.7950112 C49.776,11.7950112 51,13.0122562 51,14.5 C51,15.9877438 49.776,17.2049888 48.28,17.2049888 Z M45.424,4.89728989 L41.072,7.19653034 C39.848,8.14327641 38.216,7.87277753 37.264,6.65553259 C36.312,5.43828765 36.584,3.81529439 37.808,2.86854832 L42.16,0.569307875 C43.384,-0.377438192 45.016,-0.106939315 45.968,1.11030563 C46.92,2.32755057 46.512,3.95054383 45.424,4.89728989 Z M37.808,26.1314517 L42.16,28.4306921 C43.384,29.3774382 45.016,29.1069393 45.968,27.8896944 C46.92,26.6724494 46.648,25.0494562 45.424,24.1027101 L41.072,21.8034697 C39.848,20.8567236 38.216,21.1272225 37.264,22.3444674 C36.312,23.5617124 36.584,25.1847056 37.808,26.1314517 Z" id="Combined-Shape"></path>
            <ellipse id="Oval-311" cx="8" cy="14" rx="2" ry="2"></ellipse>
        </g>
    </g>
</svg>