<?xml version="1.0" encoding="UTF-8" standalone="no"?>
<svg width="26px" height="28px" viewBox="0 0 26 28" version="1.1" xmlns="http://www.w3.org/2000/svg" xmlns:xlink="http://www.w3.org/1999/xlink">
    <!-- Generator: Sketch 43.2 (39069) - http://www.bohemiancoding.com/sketch -->
    <title>ic_settings_black_24px</title>
    <desc>Created with Sketch.</desc>
    <defs></defs>
    <g id="Page-1" stroke="none" stroke-width="1" fill="none" fill-rule="evenodd">
        <g id="ic_settings_black_24px" transform="translate(-3.000000, -2.000000)">
            <polygon id="Shape" points="0 0 32 0 32 32 0 32"></polygon>
            <path d="M25.9066667,17.3066667 C25.96,16.88 26,16.4533333 26,16 C26,15.5466667 25.96,15.12 25.9066667,14.6933333 L28.72,12.4933333 C28.9733333,12.2933333 29.04,11.9333333 28.88,11.64 L26.2133333,7.02666667 C26.0533333,6.73333333 25.6933333,6.62666667 25.4,6.73333333 L22.08,8.06666667 C21.3866667,7.53333333 20.64,7.09333333 19.8266667,6.76 L19.32,3.22666667 C19.28,2.90666667 19,2.66666667 18.6666667,2.66666667 L13.3333333,2.66666667 C13,2.66666667 12.72,2.90666667 12.68,3.22666667 L12.1733333,6.76 C11.36,7.09333333 10.6133333,7.54666667 9.92,8.06666667 L6.6,6.73333333 C6.29333333,6.61333333 5.94666667,6.73333333 5.78666667,7.02666667 L3.12,11.64 C2.94666667,11.9333333 3.02666667,12.2933333 3.28,12.4933333 L6.09333333,14.6933333 C6.04,15.12 6,15.56 6,16 C6,16.44 6.04,16.88 6.09333333,17.3066667 L3.28,19.5066667 C3.02666667,19.7066667 2.96,20.0666667 3.12,20.36 L5.78666667,24.9733333 C5.94666667,25.2666667 6.30666667,25.3733333 6.6,25.2666667 L9.92,23.9333333 C10.6133333,24.4666667 11.36,24.9066667 12.1733333,25.24 L12.68,28.7733333 C12.72,29.0933333 13,29.3333333 13.3333333,29.3333333 L18.6666667,29.3333333 C19,29.3333333 19.28,29.0933333 19.32,28.7733333 L19.8266667,25.24 C20.64,24.9066667 21.3866667,24.4533333 22.08,23.9333333 L25.4,25.2666667 C25.7066667,25.3866667 26.0533333,25.2666667 26.2133333,24.9733333 L28.88,20.36 C29.04,20.0666667 28.9733333,19.7066667 28.72,19.5066667 L25.9066667,17.3066667 L25.9066667,17.3066667 Z M16,20.6666667 C13.4266667,20.6666667 11.3333333,18.5733333 11.3333333,16 C11.3333333,13.4266667 13.4266667,11.3333333 16,11.3333333 C18.5733333,11.3333333 20.6666667,13.4266667 20.6666667,16 C20.6666667,18.5733333 18.5733333,20.6666667 16,20.6666667 Z" id="Shape" fill="#EE3696" fill-rule="nonzero"></path>
        </g>
    </g>
</svg>