<?xml version="1.0" encoding="UTF-8" standalone="no"?>
<svg width="17px" height="12px" viewBox="0 0 17 12" version="1.1" xmlns="http://www.w3.org/2000/svg" xmlns:xlink="http://www.w3.org/1999/xlink">
    <!-- Generator: Sketch 43.1 (39012) - http://www.bohemiancoding.com/sketch -->
    <title>Menu Icon</title>
    <desc>Created with Sketch.</desc>
    <defs></defs>
    <g id="Symbols" stroke="none" stroke-width="1" fill="none" fill-rule="evenodd">
        <g id="NavBar/Slide-menu" transform="translate(-8.000000, -16.000000)" fill="#EE3696">
            <path d="M8.60714286,21 C8.27139286,21 8,21.448 8,22 C8,22.553 8.27139286,23 8.60714286,23 L24.3928571,23 C24.7286071,23 25,22.553 25,22 C25,21.448 24.7286071,21 24.3928571,21 L8.60714286,21 Z M24.3928571,26 L8.60714286,26 C8.27139286,26 8,26.448 8,27 C8,27.553 8.27139286,28 8.60714286,28 L24.3928571,28 C24.7286071,28 25,27.553 25,27 C25,26.448 24.7286071,26 24.3928571,26 L24.3928571,26 Z M24.3928571,18 C24.7286071,18 25,17.553 25,17 C25,16.448 24.7286071,16 24.3928571,16 L8.60714286,16 C8.27139286,16 8,16.448 8,17 C8,17.553 8.27139286,18 8.60714286,18 L24.3928571,18 Z" id="Menu-Icon"></path>
        </g>
    </g>
</svg>