<?xml version="1.0" encoding="UTF-8" standalone="no"?>
<svg width="14px" height="28px" viewBox="0 0 14 28" version="1.1" xmlns="http://www.w3.org/2000/svg" xmlns:xlink="http://www.w3.org/1999/xlink">
    <!-- Generator: Sketch 43.2 (39069) - http://www.bohemiancoding.com/sketch -->
    <title>Shape</title>
    <desc>Created with Sketch.</desc>
    <defs></defs>
    <g id="Simple-mode" stroke="none" stroke-width="1" fill="none" fill-rule="evenodd">
        <g id="a-simple-dash-wallcharging" transform="translate(-32.000000, -590.000000)" fill-rule="nonzero" fill="#6CB61B">
            <g id="ic_battery_charging_full_black_24px" transform="translate(23.000000, 588.000000)">
                <path d="M20.8933333,5.33333333 L18.6666667,5.33333333 L18.6666667,2.66666667 L13.3333333,2.66666667 L13.3333333,5.33333333 L11.1066667,5.33333333 C10.1333333,5.33333333 9.33333333,6.13333333 9.33333333,7.10666667 L9.33333333,27.5466667 C9.33333333,28.5333333 10.1333333,29.3333333 11.1066667,29.3333333 L20.88,29.3333333 C21.8666667,29.3333333 22.6666667,28.5333333 22.6666667,27.56 L22.6666667,7.10666667 C22.6666667,6.13333333 21.8666667,5.33333333 20.8933333,5.33333333 Z M14.6666667,26.6666667 L14.6666667,19.3333333 L12,19.3333333 L17.3333333,9.33333333 L17.3333333,16.6666667 L20,16.6666667 L14.6666667,26.6666667 Z" id="Shape"></path>
            </g>
        </g>
    </g>
</svg>