<?xml version="1.0" encoding="UTF-8" standalone="no"?>
<svg width="12px" height="9px" viewBox="0 0 12 9" version="1.1" xmlns="http://www.w3.org/2000/svg" xmlns:xlink="http://www.w3.org/1999/xlink">
    <!-- Generator: Sketch 43.2 (39069) - http://www.bohemiancoding.com/sketch -->
    <title>Clip 400</title>
    <desc>Created with Sketch.</desc>
    <defs>
        <path d="M6.21014,13.4434 L9.50231,16.7805 C9.77979,17.0655 10.33473,17.073 10.6197,16.803 L11.14465,16.3006 L12.27704,15.2132 L17.7815,9.9638 C18.06647,9.6939 18.07397,9.1389 17.7965,8.8615 L17.15906,8.209 C16.88159,7.9316 16.32664,7.9316 16.04917,8.2015 L10.6647,13.5784 C10.38723,13.8559 9.83228,13.8484 9.56231,13.5709 L7.76998,11.7636 C7.50001,11.4786 6.96006,11.4861 6.69009,11.7786 L6.19514,12.311 C5.92516,12.596 5.94016,13.1659 6.21014,13.4434 L6.21014,13.4434 Z" id="path-1"></path>
    </defs>
    <g id="Simple-mode" stroke="none" stroke-width="1" fill="none" fill-rule="evenodd">
        <g id="a-simple-module-installing" transform="translate(-326.000000, -295.000000)">
            <g id="app" transform="translate(0.000000, 256.000000)">
                <g id="check" transform="translate(320.000000, 31.000000)">
                    <mask id="mask-2" fill="white">
                        <use xlink:href="#path-1"></use>
                    </mask>
                    <use id="Clip-400" fill="#FFFFFF" xlink:href="#path-1"></use>
                </g>
            </g>
        </g>
    </g>
</svg>