<?xml version="1.0" encoding="UTF-8" standalone="no"?>
<svg width="60px" height="58px" viewBox="0 0 60 58" version="1.1" xmlns="http://www.w3.org/2000/svg" xmlns:xlink="http://www.w3.org/1999/xlink">
    <!-- Generator: Sketch 43.1 (39012) - http://www.bohemiancoding.com/sketch -->
    <title>Shape</title>
    <desc>Created with Sketch.</desc>
    <defs></defs>
    <g id="Page-1" stroke="none" stroke-width="1" fill="none" fill-rule="evenodd">
        <path d="M32.653387,1.55742281 L39.8059955,15.8626397 C40.2674541,16.785557 40.959642,17.2470156 41.8825592,17.4777449 L57.572152,19.7850379 C59.879445,20.0157672 60.8023623,23.0152482 59.1872571,24.6303533 L47.6507919,35.70536 C46.9586039,36.3975479 46.7278746,37.3204651 46.7278746,38.2433824 L49.4966263,53.9329751 C49.9580849,56.2402682 47.4200625,58.0861026 45.3434988,56.9324561 L31.2690112,49.5491183 C30.346094,49.0876597 29.4231767,49.0876597 28.7309888,49.5491183 L14.6565012,56.9324561 C12.5799375,58.0861026 10.0419151,56.2402682 10.5033737,53.9329751 L13.2721254,38.2433824 C13.5028547,37.3204651 13.0413961,36.3975479 12.3492081,35.70536 L0.812742882,24.6303533 C-0.802362255,23.0152482 0.120554966,20.0157672 2.42784802,19.7850379 L18.1174408,17.4777449 C19.040358,17.2470156 19.7325459,16.785557 20.1940045,15.8626397 L27.346613,1.55742281 C28.5002595,-0.519140937 31.4997405,-0.519140937 32.653387,1.55742281 L32.653387,1.55742281 Z" id="Shape" fill="#FFFFFF"></path>
    </g>
</svg>