<?xml version="1.0" encoding="UTF-8" standalone="no"?>
<svg width="26px" height="45px" viewBox="0 0 26 45" version="1.1" xmlns="http://www.w3.org/2000/svg" xmlns:xlink="http://www.w3.org/1999/xlink">
    <!-- Generator: Sketch 43.1 (39012) - http://www.bohemiancoding.com/sketch -->
    <title>Group</title>
    <desc>Created with Sketch.</desc>
    <defs></defs>
    <g id="Simple-mode---Mar-8" stroke="none" stroke-width="1" fill="none" fill-rule="evenodd">
        <g id="a-simple-sidebar3" transform="translate(-18.000000, -50.000000)" stroke="#EE3696">
            <g id="side-nav">
                <g id="side-nav-drawer">
                    <g id="Group-4" transform="translate(19.000000, 51.000000)">
                        <g id="Group">
                            <g id="Group-455">
                                <path d="M0,3.006586 C0,1.346094 1.341771,0 2.99109,0 L21.00891,0 C22.66084,0 24,1.334057 24,3.006586 L24,39.99341 C24,41.65391 22.65823,43 21.00891,43 L2.99109,43 C1.339157,43 0,41.66594 0,39.99341 L0,3.006586 L0,3.006586 Z" id="Stroke-453"></path>
                            </g>
                            <g id="Group-466" transform="translate(0.000000, 7.000000)" stroke-linecap="square">
                                <path d="M0.5,0.5 L22.84028,0.5" id="Stroke-456"></path>
                                <path d="M1.1333333,9.5 L8.866667,9.5" id="Stroke-458"></path>
                                <path d="M1.1333333,17.5 L8.866667,17.5" id="Stroke-460"></path>
                                <path d="M14.5,9.5 L22.85,9.5" id="Stroke-462"></path>
                                <path d="M14.5,17.5 L22.85,17.5" id="Stroke-464"></path>
                            </g>
                            <g id="Group-469" transform="translate(3.000000, 3.000000)">
                                <path d="M0,1 C0,0.4477153 0.4437166,0 0.9998075,0 L4.000193,0 C4.552371,0 5,0.4438648 5,1 L5,1 C5,1.552285 4.556283,2 4.000193,2 L0.9998075,2 C0.4476291,2 0,1.556135 0,1 L0,1 L0,1 Z" id="Stroke-467"></path>
                            </g>
                            <path d="M1.1527778,33.5 L22.84722,33.5" id="Stroke-470" stroke-linecap="square"></path>
                            <path d="M9.5,7.5 L14.5,7.5 L14.5,33.5 L9.5,33.5 L9.5,7.5 Z" id="Stroke-472"></path>
                        </g>
                    </g>
                </g>
            </g>
        </g>
    </g>
</svg>