<?xml version="1.0" encoding="UTF-8"?>
<svg width="48px" height="48px" viewBox="0 0 48 48" version="1.1" xmlns="http://www.w3.org/2000/svg" xmlns:xlink="http://www.w3.org/1999/xlink">
    <!-- Generator: Sketch 43.2 (39069) - http://www.bohemiancoding.com/sketch -->
    <title>Dummy</title>
    <desc>Created with Sketch.</desc>
    <defs></defs>
    <g id="Simple-mode" stroke="none" stroke-width="1" fill="none" fill-rule="evenodd">
        <g id="a-simple-module-installed-copy-2" transform="translate(-157.000000, -276.000000)">
            <g id="Group" transform="translate(95.000000, 276.000000)">
                <g id="Dummy" transform="translate(62.000000, 0.000000)">
                    <rect id="Rectangle-121-Copy" stroke="#949494" stroke-width="2" x="1" y="1" width="46" height="46" rx="3"></rect>
                    <path d="M14.5,23 C12.5670034,23 11,21.4329966 11,19.5 C11,17.5670034 12.5670034,16 14.5,16 C16.4329966,16 18,17.5670034 18,19.5 C18,21.4329966 16.4329966,23 14.5,23 Z M33.5,23 C31.5670034,23 30,21.4329966 30,19.5 C30,17.5670034 31.5670034,16 33.5,16 C35.4329966,16 37,17.5670034 37,19.5 C37,21.4329966 35.4329966,23 33.5,23 Z" id="Combined-Shape" fill="#949494"></path>
                    <rect id="Combined-Shape" fill="#D8D8D8" x="16" y="32" width="17" height="4" rx="2"></rect>
                </g>
            </g>
        </g>
    </g>
</svg>