<?xml version="1.0" encoding="UTF-8"?>
<svg width="13px" height="14px" viewBox="0 0 13 14" version="1.1" xmlns="http://www.w3.org/2000/svg" xmlns:xlink="http://www.w3.org/1999/xlink">
    <!-- Generator: Sketch 43.2 (39069) - http://www.bohemiancoding.com/sketch -->
    <title>Combined Shape</title>
    <desc>Created with Sketch.</desc>
    <defs></defs>
    <g id="Main-App-Advanced+Simple-mode" stroke="none" stroke-width="1" fill="none" fill-rule="evenodd">
        <g id="Tiles-100x100" transform="translate(-206.000000, -1240.000000)" fill="#FBD6EA">
            <g id="Group-5" transform="translate(206.000000, 1234.000000)">
                <path d="M0,6 L6,6 L6,10 L0,10 L0,6 Z M7,6 L13,6 L13,10 L7,10 L7,6 Z M0,11 L6,11 L6,15 L0,15 L0,11 Z M7,11 L13,11 L13,15 L7,15 L7,11 Z M0,16 L6,16 L6,20 L0,20 L0,16 Z M7,16 L13,16 L13,20 L7,20 L7,16 Z" id="Combined-Shape"></path>
            </g>
        </g>
    </g>
</svg>