<?xml version="1.0" encoding="UTF-8" standalone="no"?>
<svg width="24px" height="19px" viewBox="0 0 24 19" version="1.1" xmlns="http://www.w3.org/2000/svg" xmlns:xlink="http://www.w3.org/1999/xlink">
    <!-- Generator: Sketch 43.2 (39069) - http://www.bohemiancoding.com/sketch -->
    <title>heart</title>
    <desc>Created with Sketch.</desc>
    <defs></defs>
    <g id="Simple-mode" stroke="none" stroke-width="1" fill="none" fill-rule="evenodd">
        <g id="a-simple-settings" transform="translate(-25.000000, -692.000000)" fill="#606060">
            <g id="list" transform="translate(0.000000, 152.000000)">
                <g id="row-copy-3" transform="translate(0.000000, 520.000000)">
                    <path d="M45.4298023,21.2282766 C45.2697112,21.148231 45.1896656,21.0681855 45.0295745,20.9881399 L45.10962,20.9881399 C43.2685718,19.6273651 41.1073412,19.9475474 39.826612,20.3477753 L39.6665209,20.3477753 C39.5864753,20.3477753 39.5064297,20.4278209 39.4263842,20.4278209 C39.1862474,20.5078664 39.0261563,20.587912 38.9461107,20.587912 C38.9461107,20.587912 38.9461107,20.587912 38.8660651,20.587912 C38.7860196,20.587912 38.705974,20.6679576 38.705974,20.6679576 L38.705974,20.6679576 C38.0656094,20.9881399 37.4252448,21.3883678 36.9449713,21.9486868 C35.5841965,20.6679576 33.7431483,19.9475474 31.6619633,20.1876841 C28.7803226,20.5078664 26.3789553,22.8291881 25.9787275,25.7108288 C25.6585451,28.0321505 26.5390465,30.1133355 28.139958,31.4741103 L28.139958,31.4741103 C28.3800947,31.6342014 28.5401859,31.7942926 28.7803226,31.9543837 L36.5447434,38.1178931 C36.9449713,38.4380754 37.5853359,38.4380754 37.9855638,38.1178931 L45.6699391,31.5541559 C45.6699391,31.5541559 45.6699391,31.5541559 45.7499846,31.4741103 L45.7499846,31.4741103 C47.190805,30.2734267 48.0713063,28.512424 48.0713063,26.5112846 C48.2313975,24.3500541 47.1107594,22.4289602 45.4298023,21.2282766 L45.4298023,21.2282766 Z" id="heart"></path>
                </g>
            </g>
        </g>
    </g>
</svg>