<?xml version="1.0" encoding="UTF-8"?>
<svg width="13px" height="14px" viewBox="0 0 13 14" version="1.1" xmlns="http://www.w3.org/2000/svg" xmlns:xlink="http://www.w3.org/1999/xlink">
    <!-- Generator: Sketch 43.2 (39069) - http://www.bohemiancoding.com/sketch -->
    <title>Group</title>
    <desc>Created with Sketch.</desc>
    <defs></defs>
    <g id="Main-App-Advanced+Simple-mode" stroke="none" stroke-width="1" fill="none" fill-rule="evenodd">
        <g id="Tiles-100x100" transform="translate(-206.000000, -1320.000000)">
            <g id="Group-5" transform="translate(206.000000, 1314.000000)">
                <g id="Group" transform="translate(0.000000, 6.000000)">
                    <path d="M7,8.8817842e-16 L13,8.8817842e-16 L13,4 L7,4 L7,8.8817842e-16 Z M0,5 L6,5 L6,9 L0,9 L0,5 Z M7,5 L13,5 L13,9 L7,9 L7,5 Z M0,10 L6,10 L6,14 L0,14 L0,10 Z M7,10 L13,10 L13,14 L7,14 L7,10 Z" id="Combined-Shape" fill-opacity="0.2" fill="#FFFFFF"></path>
                    <rect id="Rectangle-3" fill="#FBD6EA" x="0" y="0" width="6" height="4"></rect>
                </g>
            </g>
        </g>
    </g>
</svg>