<?xml version="1.0" encoding="UTF-8"?>
<svg width="49px" height="42px" viewBox="0 0 49 42" version="1.1" xmlns="http://www.w3.org/2000/svg" xmlns:xlink="http://www.w3.org/1999/xlink">
    <!-- Generator: Sketch 43.2 (39069) - http://www.bohemiancoding.com/sketch -->
    <title>Group 2</title>
    <desc>Created with Sketch.</desc>
    <defs></defs>
    <g id="Simple-mode" stroke="none" stroke-width="1" fill="none" fill-rule="evenodd">
        <g id="a-simple-module-installed-copy-3" transform="translate(-157.000000, -277.000000)" fill="#949494">
            <g id="Group" transform="translate(52.000000, 278.000000)">
                <g id="Group-2" transform="translate(105.000000, 0.000000)">
                    <g id="wifi-(1)" transform="translate(0.000000, 3.000000)" fill-rule="nonzero">
                        <circle id="Oval" cx="25" cy="33" r="5"></circle>
                        <path d="M24.0102694,17 C19.8088682,17 15.8937447,19.103531 13.2687137,22.7723689 C12.8454405,23.3640727 12.9314466,24.2266027 13.4616132,24.6996915 C13.6876865,24.9019541 13.958606,25 14.2276824,25 C14.588294,25 14.9458339,24.8231059 15.1878798,24.4844018 C17.3447916,21.4710319 20.5595792,19.7432293 24.009655,19.7432293 C27.4492873,19.7432293 30.6579316,21.461433 32.8130004,24.4569763 C33.2381166,25.0479945 34.0115578,25.1419266 34.5404957,24.6681522 C35.0694336,24.1943778 35.1542111,23.3311622 34.7297092,22.740144 C32.1052925,19.0918752 28.1981553,17 24.0102694,17 Z" id="Shape"></path>
                        <path d="M25.0177753,8 L25.01521,8 C18.0792308,8 11.6139875,11.3431932 7.28052363,16.7090469 C6.83864756,17.2564147 6.9284337,18.2553768 7.48190111,18.6930174 C7.71791039,18.8801245 8.00137806,19 8.28163908,19 C8.65809953,19 9.03135333,18.590267 9.28403718,18.2769417 C13.1294492,13.5168079 18.8635769,10.5370466 25.0158514,10.5370466 L25.0177753,10.5370466 C31.15081,10.5370466 36.8733936,13.4793865 40.7168817,18.2141498 C41.1606818,18.7608834 41.9681157,19.014588 42.5203004,18.5744104 C43.0724852,18.1361356 43.1609887,17.177132 42.7178299,16.6310327 C38.3843661,11.2924523 31.933232,8 25.0177753,8 Z" id="Shape"></path>
                        <path d="M24.523172,0 C15.0442035,0.00241669378 6.20756275,4.02500349 0.279612308,11.0364363 C-0.160749725,11.557838 -0.0712712277,12.3184924 0.479660662,12.735372 C0.715500415,12.9136032 0.997357682,13 1.27729755,13 C1.65246811,13 2.02380387,12.8447274 2.27626106,12.5462657 C7.71655369,6.11181856 15.8245838,2.41971464 24.523172,2.41729795 C33.1955558,2.41729795 41.2876076,6.08765162 46.7247045,12.4876609 C47.1676231,13.0084584 47.9710122,13.090626 48.5219441,12.6737463 C49.0722368,12.2562625 49.1604371,11.4956081 48.7187968,10.9748106 C42.794042,4.00023237 33.9759361,0 24.523172,0 Z" id="Shape"></path>
                    </g>
                    <path d="M22.5409836,27.1028037 C22.5409836,28.3495327 23.3770492,29 25,29 C26.6229508,29 27.4590164,28.3495327 27.4590164,27.1028037 L28,3.03551402 L28,2.11401869 C28,0.704672897 27.0163934,0 25,0 C22.9836066,0 22,0.704672897 22,2.11401869 L22,3.03551402 L22.5409836,27.1028037 Z" id="!" stroke="#F9F9F9" stroke-width="2"></path>
                </g>
            </g>
        </g>
    </g>
</svg>