<?xml version="1.0" encoding="UTF-8" standalone="no"?>
<svg width="45px" height="45px" viewBox="0 0 45 45" version="1.1" xmlns="http://www.w3.org/2000/svg" xmlns:xlink="http://www.w3.org/1999/xlink">
    <!-- Generator: Sketch 43.1 (39012) - http://www.bohemiancoding.com/sketch -->
    <title>signal-symbol</title>
    <desc>Created with Sketch.</desc>
    <defs></defs>
    <g id="Main-app-Advanced+Simple-mode" stroke="none" stroke-width="1" fill="none" fill-rule="evenodd">
        <g id="Simple-mode/Sidebar/No-devices-connected-Copy" transform="translate(-113.000000, -218.000000)" fill-rule="nonzero" fill="#949494">
            <g id="signal-symbol" transform="translate(113.000000, 218.000000)">
                <g id="Group">
                    <path d="M1.41447987,10.2317743 C-0.0386577181,15.1850244 -2.43981544,27.689159 6.61228188,36.7963755 C12.6937752,42.9148996 20.4216946,44.1995876 25.8342282,44.1995876 C28.9313758,44.1995876 31.589849,43.7892349 33.2744799,43.4466413 C34.2084564,43.2568855 34.8777181,42.7183071 35.1093624,41.9630819 C35.347802,41.1916007 35.0916946,40.34051 34.4053691,39.6285838 L26.9151342,31.8119805 C26.4581879,31.3344764 26.1575336,30.8530222 26.2227685,30.7241888 C26.2611242,30.6486815 26.2949497,30.5684645 26.3194128,30.4820184 C26.8178859,28.7755833 27.6398154,24.4620944 24.4845302,21.288204 C22.8124329,19.6056213 20.5147148,18.7160933 17.8412919,18.7160933 C16.7904362,18.7160933 15.885906,18.8541942 15.3146477,18.9717851 C15.2214765,18.9900163 15.1344966,19.0176668 15.052047,19.0524579 C14.9125168,19.1111015 14.4389597,18.7932718 13.9823154,18.3163755 L5.35756711,9.31869778 C4.82149329,8.758242 4.17050336,8.45074335 3.52374161,8.45074335 C2.54552013,8.45089528 1.73657718,9.13243625 1.41447987,10.2317743 Z M23.220302,22.5604341 C24.885,24.2360282 25.1343121,26.3582854 24.9731879,28.0455779 C24.9111242,28.706153 24.4179362,28.8425827 23.961896,28.3656864 L17.3488591,21.4636788 C16.8919128,20.9857189 16.8155034,20.5598698 17.1804866,20.5370808 C17.4024664,20.5235594 17.6221812,20.5165708 17.841443,20.5165708 C20.0629027,20.5152035 21.8713591,21.2029734 23.220302,22.5604341 Z M33.119698,40.8768095 C33.3712752,41.1399457 33.4263926,41.3512751 33.4011745,41.4307325 C33.3835067,41.4870971 33.2614933,41.6127401 32.9218792,41.6814107 C31.3168289,42.0092675 28.7856544,42.3989582 25.8357383,42.3989582 C20.7607047,42.3989582 13.5265772,41.2061856 7.87786913,35.5227781 C-0.493942953,27.0974064 1.76874161,15.3845035 3.13142617,10.740879 C3.15528523,10.6591427 3.28515101,10.2510689 3.52374161,10.2510689 C3.67505034,10.2510689 3.87921141,10.3686598 4.06887584,10.5681389 L33.119698,40.8768095 Z" id="Shape"></path>
                    <path d="M32.0914933,26.1932935 C32.3047148,26.3090613 32.5484396,26.3367119 32.7847651,26.266522 C33.0132383,26.198611 33.2080369,26.0396961 33.3253691,25.8289745 C35.4402181,21.9399674 34.8636745,17.1248182 31.8921644,13.8480738 C29.1761577,10.8523928 24.9419295,9.721758 21.1019799,10.9626913 C20.7380537,11.0781552 20.3765436,11.2208139 20.0212248,11.3829192 C19.5618624,11.5919696 19.3590604,12.1404232 19.5665436,12.5951384 C19.6094295,12.6862941 19.6585067,12.7645361 19.7252517,12.838828 C19.9925336,13.1290071 20.4123322,13.2180358 20.7727852,13.0525882 C21.0580369,12.9236028 21.3574832,12.8060119 21.6593456,12.7077157 C24.817802,11.6863158 28.3068121,12.6167119 30.5457886,15.0877916 C32.9934564,17.7860011 33.4674664,21.7479327 31.7290772,24.9526641 C31.4910906,25.3824634 31.6575,25.9549213 32.0914933,26.1932935 Z" id="Shape"></path>
                    <path d="M37.2213423,27.8511123 C37.6769295,28.0625936 38.2182886,27.8581009 38.430604,27.4036896 C41.0514765,21.6678676 40.0102852,14.9439175 35.7813423,10.2788714 C32.0232383,6.13903418 26.3082383,4.3223006 20.8618792,5.54621812 C20.2534732,5.68431905 19.6443121,5.85827455 19.0522148,6.06854042 C18.8232886,6.14997287 18.6396644,6.31435703 18.5357718,6.53753663 C18.4294631,6.75858926 18.4188926,7.00820402 18.4989262,7.24110689 C18.539245,7.35611503 18.6035738,7.46185567 18.6837584,7.55316332 C18.9306544,7.8243516 19.3136074,7.92158437 19.6606208,7.7965491 C20.1855201,7.61180684 20.723406,7.45714596 21.2590268,7.33438958 C26.0688926,6.25434617 31.1152349,7.85549647 34.4340604,11.5134238 C38.1669463,15.6304721 39.0868792,21.5677482 36.7713423,26.6335757 C36.5712584,27.0775041 36.7751174,27.639783 37.2213423,27.8511123 Z" id="Shape"></path>
                    <path d="M41.8154195,29.9767119 C42.2723658,30.1903201 42.8159899,29.9914487 43.0261913,29.5315681 C46.4975336,21.9293326 45.1218624,13.0238741 39.5187584,6.84503527 C34.1305369,0.910037982 25.7232383,-1.37675529 18.0967953,1.02155182 C17.8533725,1.10298426 17.6075336,1.18350515 17.3668289,1.27223006 C17.1341275,1.35138361 16.9505034,1.51835052 16.8443456,1.74168204 C16.740453,1.96227889 16.7285235,2.20839935 16.8121812,2.44251763 C16.8540101,2.55524688 16.9160738,2.66098752 16.9958054,2.75229517 C17.2414933,3.02348345 17.6256544,3.12071622 17.9738758,2.99795985 C18.1958557,2.91424851 18.4201007,2.84329897 18.6443456,2.77280521 C25.5966946,0.58324471 33.2616443,2.66934346 38.1722315,8.08247423 C43.2791275,13.7149864 44.5352013,21.8308844 41.3690436,28.7622138 C41.1650336,29.2090288 41.3645134,29.770548 41.8154195,29.9767119 Z" id="Shape"></path>
                </g>
            </g>
        </g>
    </g>
</svg>