<?xml version="1.0" encoding="UTF-8" standalone="no"?>
<svg width="40px" height="38px" viewBox="0 0 40 38" version="1.1" xmlns="http://www.w3.org/2000/svg" xmlns:xlink="http://www.w3.org/1999/xlink">
    <!-- Generator: Sketch 3.8.1 (29687) - http://www.bohemiancoding.com/sketch -->
    <title>Combined Shape</title>
    <desc>Created with Sketch.</desc>
    <defs></defs>
    <g id="Page-1" stroke="none" stroke-width="1" fill="none" fill-rule="evenodd">
        <path d="M20.1133631,9.99107981 L17.2400255,8.23515129 L17.2400255,1.37106707 C17.2400255,0.253658006 15.9629866,-0.384861457 15.0052074,0.253658006 C12.6107594,1.84995666 11.1740906,4.56366438 11.1740906,7.59663183 C11.1740906,11.1084889 13.2492789,14.1414563 16.1226164,15.737755 L16.1226164,33.7759298 C16.1226164,35.6914882 17.3996554,37.6070466 19.4748436,37.9263063 C22.0289215,38.4051959 24.2637396,36.4896375 24.2637396,33.9355597 L24.2637396,15.737755 C27.1370772,14.3010862 29.2122654,11.2681187 29.2122654,7.59663183 C29.2122654,4.56366438 27.6159668,1.84995666 25.3811486,0.253658006 C24.4233694,-0.384861457 23.1463305,0.253658006 23.1463305,1.37106707 L23.1463305,8.23515129 L20.1133631,9.99107981 Z M9.25853221,33.2030121 C8.46038288,33.2030121 7.66223355,32.8837523 7.02371409,32.2452329 L0.957779194,26.179298 C0.319259731,25.5407785 0,24.7426292 0,23.9444799 C0,23.1463305 0.319259731,22.3481812 0.957779194,21.7096617 L7.34297382,15.3244671 C8.62001275,14.0474282 10.5355711,14.0474282 11.8126101,15.3244671 C13.089649,16.601506 13.089649,18.5170644 11.8126101,19.7941033 L7.66223355,23.9444799 L11.4933503,27.7755966 C12.7703893,29.0526356 12.7703893,30.9681939 11.4933503,32.2452329 C10.8548309,33.0433822 10.0566815,33.2030121 9.25853221,33.2030121 Z M30.6489342,33.2030121 C29.8507849,33.2030121 29.0526356,32.8837523 28.4141161,32.2452329 C27.1370772,30.9681939 27.1370772,29.0526356 28.4141161,27.7755966 L32.2452329,23.9444799 L28.0948564,19.7941033 C26.8178174,18.5170644 26.8178174,16.601506 28.0948564,15.3244671 C29.3718953,14.0474282 31.2874537,14.0474282 32.5644926,15.3244671 L38.9496872,21.7096617 C40.2267261,22.9867007 40.2267261,24.902259 38.9496872,26.179298 L32.8837523,32.2452329 C32.2452329,33.0433822 31.4470835,33.2030121 30.6489342,33.2030121 Z" id="Combined-Shape" fill="#FFFFFF"></path>
    </g>
</svg>