<?xml version="1.0" encoding="UTF-8"?>
<svg width="58px" height="58px" viewBox="0 0 58 58" version="1.1" xmlns="http://www.w3.org/2000/svg" xmlns:xlink="http://www.w3.org/1999/xlink">
    <!-- Generator: Sketch 44.1 (41455) - http://www.bohemiancoding.com/sketch -->
    <title>Backup Icon 58x58</title>
    <desc>Created with Sketch.</desc>
    <defs></defs>
    <g id="Main-App-Advanced+Simple-mode" stroke="none" stroke-width="1" fill="none" fill-rule="evenodd">
        <g id="Icons-100x100-Tile" transform="translate(-174.000000, -174.000000)">
            <g id="Backup-Icon-58x58" transform="translate(174.000000, 174.000000)">
                <g>
                    <g id="SD-card" transform="translate(8.000000, 12.000000)" fill="#FFFFFF">
                        <path d="M21.3255814,1.13953488 C20.8372093,0.488372093 20.1860465,0 19.372093,0 L2.27906977,0 C0.976744186,0 2.30926389e-13,0.976744186 2.30926389e-13,2.27906977 L0,31.7209302 C0,33.0232558 0.976744186,34 2.27906977,34 L39.7209302,34 C41.0232558,34 42,33.0232558 42,31.7209302 L42,9.76744186 C42,8.46511628 41.0232558,7.48837209 39.7209302,7.48837209 L26.372093,7.48837209 C25.3953488,7.48837209 24.5813953,7 24.255814,6.18604651 L21.3255814,1.13953488 Z" id="Shape"></path>
                    </g>
                    <rect id="Rectangle-6" x="0" y="0" width="58" height="58"></rect>
                </g>
            </g>
        </g>
    </g>
</svg>