<?xml version="1.0" encoding="UTF-8" standalone="no"?>
<svg width="30px" height="20px" viewBox="0 0 30 20" version="1.1" xmlns="http://www.w3.org/2000/svg" xmlns:xlink="http://www.w3.org/1999/xlink">
    <!-- Generator: Sketch 3.8.1 (29687) - http://www.bohemiancoding.com/sketch -->
    <title>Shape</title>
    <desc>Created with Sketch.</desc>
    <defs></defs>
    <g id="Page-1" stroke="none" stroke-width="1" fill="none" fill-rule="evenodd">
        <path d="M29.799845,13.1618628 L26.8025206,3.42055849 C26.0531895,0.891566034 23.3368643,-0.607096162 20.8078718,0.235901323 C19.2155432,0.704233259 17.9978802,2.01556268 17.5295483,3.60789126 L12.4715633,3.60789126 C12.0032314,2.10922907 10.8792348,0.797899647 9.19323979,0.235901323 C6.66424734,-0.513429775 3.94792211,0.891566034 3.19859101,3.42055849 L0.201266617,13.1618628 C-0.548064481,15.6908552 0.856931328,18.4071804 3.38592378,19.1565115 C5.91491624,19.9058426 8.63124147,18.5008468 9.38057256,15.9718544 L10.22357,13.1618628 L19.5902088,13.1618628 L20.4332063,15.9718544 C21.1825374,18.5008468 23.8988626,19.999509 26.427855,19.1565115 C29.1441803,18.4071804 30.5491761,15.6908552 29.799845,13.1618628 L29.799845,13.1618628 Z M9.00590702,9.13420811 L8.72490785,9.13420811 L8.72490785,9.41520727 C8.72490785,10.1645384 8.06924314,10.8202031 7.31991205,10.8202031 C6.57058095,10.8202031 5.91491624,10.1645384 5.91491624,9.41520727 L5.91491624,9.13420811 L5.63391708,9.13420811 C4.88458598,9.13420811 4.22892127,8.4785434 4.22892127,7.7292123 C4.22892127,6.9798812 4.88458598,6.32421649 5.63391708,6.32421649 L5.91491624,6.32421649 L5.91491624,6.04321733 C5.91491624,5.29388623 6.57058095,4.63822152 7.31991205,4.63822152 C8.06924314,4.63822152 8.72490785,5.29388623 8.72490785,6.04321733 L8.72490785,6.32421649 L9.00590702,6.32421649 C9.75523811,6.32421649 10.4109028,6.9798812 10.4109028,7.7292123 C10.4109028,8.4785434 9.8489045,9.13420811 9.00590702,9.13420811 L9.00590702,9.13420811 Z M20.4332063,10.8202031 C19.7775415,10.8202031 19.2155432,10.2582048 19.2155432,9.60254005 C19.2155432,8.94687533 19.7775415,8.38487701 20.4332063,8.38487701 C21.088871,8.38487701 21.6508693,8.94687533 21.6508693,9.60254005 C21.6508693,10.2582048 21.088871,10.8202031 20.4332063,10.8202031 L20.4332063,10.8202031 Z M20.4332063,6.79254843 C19.7775415,6.79254843 19.2155432,6.23055011 19.2155432,5.57488539 C19.2155432,4.91922068 19.7775415,4.35722236 20.4332063,4.35722236 C21.088871,4.35722236 21.6508693,4.91922068 21.6508693,5.57488539 C21.6508693,6.23055011 21.088871,6.79254843 20.4332063,6.79254843 L20.4332063,6.79254843 Z M24.4608609,10.8202031 C23.8051962,10.8202031 23.2431979,10.2582048 23.2431979,9.60254005 C23.2431979,8.94687533 23.8051962,8.38487701 24.4608609,8.38487701 C25.1165256,8.38487701 25.6785239,8.94687533 25.6785239,9.60254005 C25.6785239,10.2582048 25.1165256,10.8202031 24.4608609,10.8202031 L24.4608609,10.8202031 Z M24.4608609,6.79254843 C23.8051962,6.79254843 23.2431979,6.23055011 23.2431979,5.57488539 C23.2431979,4.91922068 23.8051962,4.35722236 24.4608609,4.35722236 C25.1165256,4.35722236 25.6785239,4.91922068 25.6785239,5.57488539 C25.6785239,6.23055011 25.1165256,6.79254843 24.4608609,6.79254843 L24.4608609,6.79254843 Z" id="Shape" fill="#FFFFFF"></path>
    </g>
</svg>