<svg width="18" height="23" viewBox="0 0 18 23" fill="none" xmlns="http://www.w3.org/2000/svg">
<path d="M4.5 13V7.5C4.5 7.10218 4.65804 6.72064 4.93934 6.43934C5.22064 6.15804 5.60218 6 6 6C6.39782 6 6.77936 6.15804 7.06066 6.43934C7.34196 6.72064 7.5 7.10218 7.5 7.5V13" stroke="#112331" stroke-width="1.5" stroke-linecap="round" stroke-linejoin="round"/>
<path d="M16.5 12.5V15.75C16.5 18.9255 13.9255 21.5 10.75 21.5H10.25C7.0745 21.5 4.5 18.9255 4.5 15.75V12.5" stroke="#112331" stroke-width="1.5" stroke-linecap="round" stroke-linejoin="round"/>
<path d="M7.5 14.5V12C7.5 11.6022 7.65804 11.2206 7.93934 10.9393C8.22064 10.658 8.60218 10.5 9 10.5C9.39782 10.5 9.77936 10.658 10.0607 10.9393C10.342 11.2206 10.5 11.6022 10.5 12V14.5" stroke="#112331" stroke-width="1.5" stroke-linecap="round" stroke-linejoin="round"/>
<path d="M10.5 14.5V12C10.5 11.6022 10.658 11.2206 10.9393 10.9393C11.2206 10.658 11.6022 10.5 12 10.5C12.3978 10.5 12.7794 10.658 13.0607 10.9393C13.342 11.2206 13.5 11.6022 13.5 12V14.5" stroke="#112331" stroke-width="1.5" stroke-linecap="round" stroke-linejoin="round"/>
<path d="M13.5 14.5V12C13.5 11.6022 13.658 11.2206 13.9393 10.9393C14.2206 10.658 14.6022 10.5 15 10.5C15.3978 10.5 15.7794 10.658 16.0607 10.9393C16.342 11.2206 16.5 11.6022 16.5 12V14.5" stroke="#112331" stroke-width="1.5" stroke-linecap="round" stroke-linejoin="round"/>
<path d="M11 8.5C11.0013 7.42976 10.658 6.38752 10.021 5.5275C9.55643 4.89821 8.9505 4.38686 8.25206 4.03469C7.55362 3.68252 6.78221 3.49937 6.00001 3.5C5.2178 3.49937 4.44639 3.68252 3.74795 4.03469C3.04951 4.38686 2.44358 4.89821 1.979 5.5275C1.34198 6.38752 0.99872 7.42976 1 8.5" stroke="#112331" stroke-width="1.5" stroke-linecap="round"/>
<path d="M9.15292 1.64163C8.17511 1.21902 7.09513 0.99924 6.00004 1C4.90496 0.99924 3.82498 1.21902 2.84717 1.64163" stroke="#112331" stroke-width="1.5" stroke-linecap="round"/>
</svg>
