<svg width="88" height="88" viewBox="0 0 88 88" fill="none" xmlns="http://www.w3.org/2000/svg">
<circle cx="44" cy="44" r="44" fill="white"/>
<path fill-rule="evenodd" clip-rule="evenodd" d="M42.5143 30.6287H45.4857V45.4858H42.5143V30.6287ZM50.552 35.9623L52.6617 33.8526C55.544 36.304 57.3714 39.9292 57.3714 44C57.3714 51.384 51.384 57.3715 44 57.3715C36.616 57.3715 30.6285 51.384 30.6285 44C30.6285 39.9292 32.456 36.304 35.3383 33.8526L37.4331 35.9475C35.1005 37.8492 33.6 40.7463 33.6 44C33.6 49.7497 38.2503 54.4 44 54.4C49.7497 54.4 54.4 49.7497 54.4 44C54.4 40.7463 52.8994 37.8492 50.552 35.9623Z" fill="#A42F3A"/>
</svg>
