<svg width="24" height="25" viewBox="0 0 24 25" fill="none" xmlns="http://www.w3.org/2000/svg">
<path d="M21.403 9.69041L20.3302 9.50847C20.2347 9.2426 20.1267 8.98177 20.0074 8.72815L20.6392 7.84427C21.1889 7.07201 21.1006 6.02901 20.4314 5.36635L19.1421 4.07695C18.7778 3.71255 18.2947 3.51181 17.7821 3.51181C17.3784 3.51181 16.9924 3.63618 16.6684 3.86932L15.7812 4.50127C15.5068 4.37152 15.2283 4.25688 14.948 4.15785L14.7706 3.10663C14.6145 2.17558 13.8159 1.5 12.8716 1.5H11.0501C10.106 1.5 9.30737 2.17558 9.15161 3.10478L8.96514 4.19713C8.70179 4.2933 8.44213 4.40257 8.18784 4.5246L7.31672 3.89719C6.99009 3.66203 6.60253 3.53783 6.19584 3.53783C5.67821 3.53783 5.19498 3.73891 4.83461 4.10414L3.54236 5.3922C2.87501 6.05956 2.78756 7.10172 3.33457 7.87012L3.97658 8.77213C3.85825 9.02675 3.75184 9.28876 3.65784 9.55614L2.60646 9.73355C1.67558 9.88982 1 10.6884 1 11.6326V13.454C1 14.3982 1.67558 15.1968 2.60478 15.3527L3.69712 15.539C3.79329 15.8026 3.90273 16.0624 4.02459 16.3165L3.39953 17.1859C2.84983 17.9582 2.93812 19.0014 3.60732 19.6639L4.89655 20.9533C5.26094 21.3177 5.744 21.5184 6.2566 21.5184C6.66027 21.5184 7.04632 21.394 7.3701 21.1611L8.2721 20.519C8.5091 20.6292 8.75483 20.73 9.0071 20.8208L9.18585 21.8935C9.34212 22.8244 10.1407 23.5 11.0849 23.5H12.9105C13.8547 23.5 14.6534 22.8244 14.8094 21.8947L14.9913 20.8217C15.2572 20.7262 15.518 20.6182 15.7716 20.4989L16.6527 21.1287C16.9793 21.3638 17.3668 21.4882 17.7735 21.4882C18.286 21.4882 18.769 21.2874 19.1334 20.923L20.4226 19.6337C21.0902 18.9663 21.1775 17.9241 20.6304 17.1557L19.998 16.2677C20.1205 16.0082 20.2288 15.7475 20.3219 15.4883L21.3933 15.3098C22.3242 15.1535 22.9998 14.3549 22.9998 13.4107V11.593C23.0103 10.6478 22.3396 9.84819 21.403 9.69041Z" fill="transparent"/>
<path d="M21.403 9.69041L21.2776 10.4299L21.2784 10.43L21.403 9.69041ZM20.3302 9.50847L19.6243 9.76202L19.7725 10.1746L20.2048 10.2479L20.3302 9.50847ZM20.0074 8.72815L19.3972 8.29203L19.1416 8.64968L19.3288 9.04747L20.0074 8.72815ZM20.6392 7.84427L21.2493 8.28039L21.2502 8.27919L20.6392 7.84427ZM20.4314 5.36635L19.901 5.89665L19.9037 5.89928L20.4314 5.36635ZM19.1421 4.07695L19.6725 3.54666L19.6725 3.54662L19.1421 4.07695ZM16.6684 3.86932L17.1035 4.48022L17.1065 4.47806L16.6684 3.86932ZM15.7812 4.50127L15.4606 5.17931L15.8582 5.36725L16.2163 5.11215L15.7812 4.50127ZM14.948 4.15785L14.2085 4.28266L14.2819 4.71796L14.6982 4.86502L14.948 4.15785ZM14.7706 3.10663L14.0309 3.23064L14.0311 3.23144L14.7706 3.10663ZM9.15161 3.10478L9.89092 3.23099L9.89129 3.22877L9.15161 3.10478ZM8.96514 4.19713L9.22242 4.90162L9.63121 4.75233L9.70444 4.32334L8.96514 4.19713ZM8.18784 4.5246L7.74952 5.13318L8.11085 5.39342L8.51232 5.20077L8.18784 4.5246ZM7.31672 3.89719L7.75504 3.2886L7.75492 3.28852L7.31672 3.89719ZM4.83461 4.10414L5.3641 4.63535L5.36849 4.6309L4.83461 4.10414ZM3.54236 5.3922L3.0129 4.86101L3.01203 4.86187L3.54236 5.3922ZM3.33457 7.87012L3.9456 7.43521L3.94557 7.43516L3.33457 7.87012ZM3.97658 8.77213L4.65672 9.08821L4.84057 8.69262L4.58761 8.33722L3.97658 8.77213ZM3.65784 9.55614L3.78264 10.2957L4.21873 10.2221L4.3654 9.80487L3.65784 9.55614ZM2.60646 9.73355L2.73062 10.4732L2.73125 10.4731L2.60646 9.73355ZM2.60478 15.3527L2.73088 14.6134L2.7289 14.6131L2.60478 15.3527ZM3.69712 15.539L4.40166 15.2819L4.2524 14.8729L3.82322 14.7997L3.69712 15.539ZM4.02459 16.3165L4.63355 16.7543L4.89314 16.3932L4.70085 15.9922L4.02459 16.3165ZM3.39953 17.1859L2.79056 16.7481L2.78851 16.751L3.39953 17.1859ZM3.60732 19.6639L4.13769 19.1336L4.13497 19.1309L3.60732 19.6639ZM4.89655 20.9533L4.36618 21.4836L4.36622 21.4836L4.89655 20.9533ZM7.3701 21.1611L6.93518 20.55L6.93205 20.5523L7.3701 21.1611ZM8.2721 20.519L8.5881 19.8389L8.19254 19.6551L7.83719 19.908L8.2721 20.519ZM9.0071 20.8208L9.7469 20.6976L9.67465 20.264L9.26111 20.1152L9.0071 20.8208ZM9.18585 21.8935L8.44605 22.0168L8.4462 22.0177L9.18585 21.8935ZM14.8094 21.8947L14.0699 21.7693L14.0697 21.7707L14.8094 21.8947ZM14.9913 20.8217L14.7378 20.1158L14.3252 20.264L14.2519 20.6963L14.9913 20.8217ZM15.7716 20.4989L16.2078 19.8888L15.8501 19.6331L15.4523 19.8203L15.7716 20.4989ZM16.6527 21.1287L17.0909 20.52L17.0888 20.5185L16.6527 21.1287ZM19.1334 20.923L19.6638 21.4534L19.6638 21.4533L19.1334 20.923ZM20.4226 19.6337L19.8924 19.1033L19.8923 19.1034L20.4226 19.6337ZM20.6304 17.1557L21.2414 16.7208L21.2414 16.7207L20.6304 17.1557ZM19.998 16.2677L19.3198 15.9474L19.1322 16.3448L19.3871 16.7027L19.998 16.2677ZM20.3219 15.4883L20.1986 14.7486L19.7649 14.8209L19.6162 15.2346L20.3219 15.4883ZM21.3933 15.3098L21.5166 16.0495L21.5175 16.0494L21.3933 15.3098ZM22.9998 11.593L22.2498 11.5846V11.593H22.9998ZM21.5284 8.95097L20.4556 8.76903L20.2048 10.2479L21.2776 10.4299L21.5284 8.95097ZM21.036 9.25492C20.9325 8.9668 20.8155 8.68401 20.686 8.40882L19.3288 9.04747C19.438 9.27952 19.5368 9.5184 19.6243 9.76202L21.036 9.25492ZM20.6176 9.16427L21.2493 8.28039L20.029 7.40814L19.3972 8.29203L20.6176 9.16427ZM21.2502 8.27919C22.0115 7.20958 21.8913 5.75651 20.9591 4.83342L19.9037 5.89928C20.3099 6.30151 20.3662 6.93443 20.0282 7.40935L21.2502 8.27919ZM20.9617 4.83605L19.6725 3.54666L18.6118 4.60724L19.901 5.89664L20.9617 4.83605ZM19.6725 3.54662C19.1683 3.04244 18.4948 2.76181 17.7821 2.76181V4.26181C18.0946 4.26181 18.3872 4.38267 18.6118 4.60728L19.6725 3.54662ZM17.7821 2.76181C17.2223 2.76181 16.6827 2.93498 16.2303 3.26058L17.1065 4.47806C17.302 4.33739 17.5346 4.26181 17.7821 4.26181V2.76181ZM16.2333 3.25844L15.3461 3.89038L16.2163 5.11215L17.1035 4.48021L16.2333 3.25844ZM16.1018 3.82323C15.8045 3.68267 15.5024 3.55829 15.1978 3.45069L14.6982 4.86502C14.9542 4.95547 15.2091 5.06037 15.4606 5.17931L16.1018 3.82323ZM15.6876 4.03304L15.5101 2.98182L14.0311 3.23144L14.2085 4.28266L15.6876 4.03304ZM15.5103 2.98262C15.2936 1.69004 14.182 0.75 12.8716 0.75V2.25C13.4498 2.25 13.9354 2.66113 14.0309 3.23064L15.5103 2.98262ZM12.8716 0.75H11.0501V2.25H12.8716V0.75ZM11.0501 0.75C9.74027 0.75 8.62837 1.68964 8.41193 2.98079L9.89129 3.22877C9.98638 2.66153 10.4717 2.25 11.0501 2.25V0.75ZM8.41231 2.97857L8.22583 4.07092L9.70444 4.32334L9.89092 3.23099L8.41231 2.97857ZM8.70786 3.49264C8.42181 3.5971 8.13972 3.71581 7.86336 3.84842L8.51232 5.20077C8.74454 5.08934 8.98176 4.98951 9.22242 4.90162L8.70786 3.49264ZM8.62616 3.91601L7.75504 3.2886L6.8784 4.50577L7.74952 5.13318L8.62616 3.91601ZM7.75492 3.28852C7.29916 2.96039 6.75795 2.78783 6.19584 2.78783V4.28783C6.44712 4.28783 6.68103 4.36367 6.87852 4.50585L7.75492 3.28852ZM6.19584 2.78783C5.47949 2.78783 4.80339 3.06794 4.30074 3.57738L5.36849 4.6309C5.58657 4.40988 5.87692 4.28783 6.19584 4.28783V2.78783ZM4.30514 3.57295L3.0129 4.86101L4.07183 5.92339L5.36408 4.63533L4.30514 3.57295ZM3.01203 4.86187C2.08604 5.78787 1.96397 7.23803 2.72358 8.30507L3.94557 7.43516C3.61115 6.9654 3.66398 6.33124 4.0727 5.92253L3.01203 4.86187ZM2.72354 8.30502L3.36555 9.20703L4.58761 8.33722L3.9456 7.43521L2.72354 8.30502ZM3.29644 8.45604C3.16768 8.7331 3.05216 9.01761 2.95029 9.30741L4.3654 9.80487C4.45151 9.55991 4.54882 9.3204 4.65672 9.08821L3.29644 8.45604ZM3.53305 8.81659L2.48166 8.99401L2.73125 10.4731L3.78264 10.2957L3.53305 8.81659ZM2.48229 8.9939C1.19004 9.21083 0.25 10.3223 0.25 11.6326H1.75C1.75 11.0546 2.16113 10.5688 2.73062 10.4732L2.48229 8.9939ZM0.25 11.6326V13.454H1.75V11.6326H0.25ZM0.25 13.454C0.25 14.7639 1.18963 15.8757 2.48065 16.0924L2.7289 14.6131C2.16153 14.5179 1.75 14.0324 1.75 13.454H0.25ZM2.47868 16.092L3.57102 16.2784L3.82322 14.7997L2.73088 14.6134L2.47868 16.092ZM2.99258 15.7962C3.09712 16.0826 3.216 16.3648 3.34832 16.6408L4.70085 15.9922C4.58946 15.7599 4.48947 15.5225 4.40166 15.2819L2.99258 15.7962ZM3.41562 15.8787L2.79056 16.7481L4.00849 17.6237L4.63355 16.7543L3.41562 15.8787ZM2.78851 16.751C2.02719 17.8206 2.14735 19.2739 3.07967 20.1969L4.13497 19.1309C3.72889 18.7289 3.67247 18.0958 4.01055 17.6209L2.78851 16.751ZM3.07696 20.1942L4.36618 21.4836L5.42691 20.423L4.13769 19.1336L3.07696 20.1942ZM4.36622 21.4836C4.8704 21.9878 5.54387 22.2684 6.2566 22.2684V20.7684C5.94413 20.7684 5.65148 20.6475 5.42688 20.4229L4.36622 21.4836ZM6.2566 22.2684C6.8164 22.2684 7.35588 22.0953 7.80814 21.7698L6.93205 20.5523C6.73676 20.6928 6.50415 20.7684 6.2566 20.7684V22.2684ZM7.805 21.7721L8.70701 21.1301L7.83719 19.908L6.93519 20.55L7.805 21.7721ZM7.9561 21.1992C8.21393 21.319 8.48037 21.4283 8.75309 21.5265L9.26111 20.1152C9.02928 20.0317 8.80427 19.9393 8.5881 19.8389L7.9561 21.1992ZM8.2673 20.9441L8.44606 22.0168L9.92565 21.7703L9.7469 20.6976L8.2673 20.9441ZM8.4462 22.0177C8.66313 23.31 9.77457 24.25 11.0849 24.25V22.75C10.5069 22.75 10.0211 22.3389 9.9255 21.7694L8.4462 22.0177ZM11.0849 24.25H12.9105V22.75H11.0849V24.25ZM12.9105 24.25C14.2204 24.25 15.3324 23.3103 15.549 22.0188L14.0697 21.7707C13.9745 22.3385 13.4889 22.75 12.9105 22.75V24.25ZM15.5488 22.0201L15.7308 20.9471L14.2519 20.6963L14.0699 21.7693L15.5488 22.0201ZM15.2449 21.5275C15.533 21.424 15.8158 21.307 16.091 21.1775L15.4523 19.8203C15.2203 19.9295 14.9814 20.0283 14.7378 20.1158L15.2449 21.5275ZM15.3355 21.1091L16.2165 21.7388L17.0888 20.5185L16.2078 19.8888L15.3355 21.1091ZM16.2145 21.7373C16.67 22.0653 17.2112 22.2382 17.7735 22.2382V20.7382C17.5225 20.7382 17.2885 20.6623 17.0909 20.52L16.2145 21.7373ZM17.7735 22.2382C18.4861 22.2382 19.1596 21.9575 19.6638 21.4534L18.6031 20.3927C18.3785 20.6174 18.0858 20.7382 17.7735 20.7382V22.2382ZM19.6638 21.4533L20.953 20.1639L19.8923 19.1034L18.6031 20.3928L19.6638 21.4533ZM20.9529 20.164C21.8792 19.238 22.001 17.7877 21.2414 16.7208L20.0194 17.5907C20.3539 18.0605 20.3011 18.6946 19.8924 19.1033L20.9529 20.164ZM21.2414 16.7207L20.6089 15.8326L19.3871 16.7027L20.0195 17.5908L21.2414 16.7207ZM20.6762 16.5879C20.8087 16.3074 20.9262 16.0245 21.0277 15.742L19.6162 15.2346C19.5314 15.4705 19.4324 15.709 19.3198 15.9474L20.6762 16.5879ZM20.4453 16.2281L21.5166 16.0495L21.27 14.57L20.1986 14.7486L20.4453 16.2281ZM21.5175 16.0494C22.8097 15.8325 23.7498 14.721 23.7498 13.4107H22.2498C22.2498 13.9887 21.8386 14.4745 21.2691 14.5701L21.5175 16.0494ZM23.7498 13.4107V11.593H22.2498V13.4107H23.7498ZM23.7497 11.6013C23.7644 10.2846 22.8261 9.16957 21.5276 8.95084L21.2784 10.43C21.8532 10.5268 22.2562 11.0111 22.2498 11.5846L23.7497 11.6013Z" fill="#112331"/>
<path d="M12 10.5C10.8972 10.5 10 11.3972 10 12.5C10 13.6028 10.8972 14.5 12 14.5C13.1028 14.5 14 13.6028 14 12.5C14 11.3972 13.1028 10.5 12 10.5Z" fill="transparent" stroke="#112331" stroke-width="1.5"/>
</svg>
